<?xml version="1.0" encoding="UTF-8" standalone="no"?>
<!-- Created with Inkscape (http://www.inkscape.org/) -->

<svg
   width="33.588234"
   height="34.016731"
   version="1.1"
   viewBox="0 0 8.8868723 9.0002736"
   id="svg962"
   sodipodi:docname="erfgws.svg"
   inkscape:version="1.1.1 (3bf5ae0d25, 2021-09-20)"
   xmlns:inkscape="http://www.inkscape.org/namespaces/inkscape"
   xmlns:sodipodi="http://sodipodi.sourceforge.net/DTD/sodipodi-0.dtd"
   xmlns="http://www.w3.org/2000/svg"
   xmlns:svg="http://www.w3.org/2000/svg">
  <defs
     id="defs966" />
  <sodipodi:namedview
     id="namedview964"
     pagecolor="#ffffff"
     bordercolor="#666666"
     borderopacity="1.0"
     inkscape:pageshadow="2"
     inkscape:pageopacity="0.0"
     inkscape:pagecheckerboard="0"
     showgrid="false"
     inkscape:zoom="2.7249713"
     inkscape:cx="-115.23057"
     inkscape:cy="57.431797"
     inkscape:window-width="1920"
     inkscape:window-height="991"
     inkscape:window-x="-9"
     inkscape:window-y="1341"
     inkscape:window-maximized="1"
     inkscape:current-layer="svg962" />
  <path
     d="m 400.81999,-207.30733 c -0.055,-0.0192 -0.1355,-0.0582 -0.1787,-0.0868 -0.091,-0.0605 -0.2021,-0.21989 -0.2318,-0.33382 -0.022,-0.0857 -0.4844,-5.7322 -0.4844,-5.9196 0,-0.092 0.01,-0.12345 0.048,-0.16984 0.026,-0.0313 0.072,-0.0669 0.1015,-0.079 0.04,-0.0163 0.8074,-0.0207 2.9356,-0.017 l 2.8821,0.005 0.052,0.0483 c 0.1177,0.10863 0.1272,-0.11067 -0.1357,3.1382 -0.2374,2.9345 -0.2407,2.969 -0.2919,3.0833 -0.06,0.13293 -0.1795,0.2534 -0.3138,0.31545 l -0.09,0.0418 -2.0963,0.004 c -1.9767,0.004 -2.1021,0.002 -2.1965,-0.0304 z m 0.8208,-0.60975 c 0.069,-0.0359 0.1317,-0.1048 0.1577,-0.17351 0.016,-0.0428 -0.013,-0.61098 -0.1249,-2.4538 -0.08,-1.3189 -0.1552,-2.4323 -0.1666,-2.4743 -0.06,-0.21994 -0.3303,-0.29487 -0.4896,-0.13557 -0.041,0.0408 -0.072,0.0945 -0.08,0.13915 -0.01,0.0409 0.052,1.13 0.1354,2.4871 0.1386,2.2438 0.1519,2.4194 0.1887,2.485 0.074,0.13098 0.2544,0.19096 0.3794,0.12591 z m 1.5063,-0.0245 c 0.028,-0.0207 0.069,-0.0617 0.09,-0.0911 0.04,-0.0532 0.04,-0.0587 0.04,-2.5332 0,-2.4745 -10e-5,-2.48 -0.04,-2.5332 -0.1426,-0.19093 -0.4104,-0.18497 -0.5106,0.0114 -0.038,0.0752 -0.039,0.10893 -0.039,2.5233 v 2.447 l 0.041,0.0725 c 0.059,0.10439 0.1581,0.15825 0.2746,0.14869 0.052,-0.004 0.1157,-0.0244 0.1437,-0.0453 z m 1.4547,0.0101 c 0.1571,-0.0883 0.1385,0.0727 0.2894,-2.4994 0.1621,-2.7613 0.1546,-2.5706 0.1055,-2.6543 -0.063,-0.10762 -0.132,-0.14693 -0.2573,-0.14693 -0.1255,0 -0.2151,0.0499 -0.2659,0.14815 -0.024,0.0467 -0.058,0.53496 -0.1736,2.486 -0.079,1.3353 -0.1386,2.4514 -0.1325,2.4801 0.01,0.0287 0.029,0.0753 0.051,0.10361 0.098,0.12527 0.2494,0.15786 0.383,0.0828 z m -5.2899,-6.5991 c -0.065,-0.0125 -0.1564,-0.11421 -0.1705,-0.18896 -0.01,-0.0507 0.013,-0.14272 0.098,-0.40016 0.1255,-0.38032 0.1692,-0.46055 0.2849,-0.52233 l 0.082,-0.0438 h 6.743 l 0.086,0.0483 c 0.047,0.0266 0.1055,0.077 0.1291,0.11204 0.053,0.0791 0.2581,0.68804 0.258,0.76708 -10e-5,0.0825 -0.067,0.18118 -0.1446,0.21367 -0.057,0.0239 -0.5766,0.0275 -3.6947,0.0252 -1.9955,-0.001 -3.6476,-0.006 -3.6714,-0.011 z m 2.2588,-2.0006 c 0.01,-0.20617 0.013,-0.24875 0.054,-0.33025 0.056,-0.11004 0.1478,-0.19565 0.27,-0.25217 0.086,-0.0397 0.1118,-0.0407 1.0926,-0.0407 h 1.0047 l 0.097,0.0514 c 0.2217,0.11799 0.3022,0.26893 0.315,0.59101 l 0.01,0.21736 h -0.6038 v -0.2705 h -1.6616 v 0.2705 h -0.5827 z"
     stroke-width="0.019321"
     id="path490"
     style="fill:#8da1bd" />
  <text
     x="89.253159"
     y="-36.030239"
     font-family="Makertone"
     font-size="23.706px"
     letter-spacing="0px"
     stroke-width="0.80817"
     style="line-height:1.25;fill:#8da1bd"
     xml:space="preserve"
     id="text494"><tspan
       x="89.253159"
       y="-36.030239"
       fill="#8da1bd"
       stroke-width="0.80817"
       id="tspan492">+</tspan></text>
  <text
     transform="scale(1.3019823,0.76805959)"
     x="53.895954"
     y="-54.046902"
     font-family="Arial"
     font-size="14.3602px"
     letter-spacing="0px"
     stroke-opacity="0.28094"
     stroke-width="0.489537"
     style="line-height:1.25;fill:#8da1bd"
     xml:space="preserve"
     id="text498"><tspan
       x="53.895954"
       y="-54.046902"
       fill="#8da1bd"
       font-family="Arial"
       stroke-opacity="0.28094"
       stroke-width="0.489537"
       id="tspan496">I</tspan></text>
  <path
     d="m 68.219987,-44.057329 1.2999,-1.0982 3.264104,2.7231 3.2315,-3.1062 1.2592,1.2258 -4.5902,4.5152 z"
     id="path500"
     style="fill:#8da1bd" />
  <path
     d="m 48.019987,-39.867329 c -0.055,-0.0192 -0.1355,-0.0582 -0.1787,-0.0868 -0.091,-0.0605 -0.2021,-0.21989 -0.2318,-0.33382 -0.022,-0.0857 -0.4844,-5.7322 -0.4844,-5.9196 0,-0.092 0.01,-0.12345 0.048,-0.16984 0.026,-0.0313 0.072,-0.0669 0.1015,-0.079 0.04,-0.0163 0.8074,-0.0207 2.9356,-0.017 l 2.8821,0.005 0.052,0.0483 c 0.1177,0.10863 0.1272,-0.11067 -0.1357,3.1382 -0.2374,2.9345 -0.2407,2.969 -0.2919,3.0833 -0.06,0.13293 -0.1795,0.2534 -0.3138,0.31545 l -0.09,0.0418 -2.0963,0.004 c -1.9767,0.004 -2.1021,0.002 -2.1965,-0.0304 z m 0.8208,-0.60975 c 0.069,-0.0359 0.1317,-0.1048 0.1577,-0.17351 0.016,-0.0428 -0.013,-0.61098 -0.1249,-2.4538 -0.08,-1.3189 -0.1552,-2.4323 -0.1666,-2.4743 -0.06,-0.21994 -0.3303,-0.29487 -0.4896,-0.13557 -0.041,0.0408 -0.072,0.0945 -0.08,0.13915 -0.01,0.0409 0.052,1.13 0.1354,2.4871 0.1386,2.2438 0.1519,2.4194 0.1887,2.485 0.074,0.13098 0.2544,0.19096 0.3794,0.12591 z m 1.5063,-0.0245 c 0.028,-0.0207 0.069,-0.0617 0.09,-0.0911 0.04,-0.0532 0.04,-0.0587 0.04,-2.5332 0,-2.4745 -10e-5,-2.48 -0.04,-2.5332 -0.1426,-0.19093 -0.4104,-0.18497 -0.5106,0.0114 -0.038,0.0752 -0.039,0.10893 -0.039,2.5233 v 2.447 l 0.041,0.0725 c 0.059,0.10439 0.1581,0.15825 0.2746,0.14869 0.052,-0.004 0.1157,-0.0244 0.1437,-0.0453 z m 1.4547,0.0101 c 0.1571,-0.0883 0.1385,0.0727 0.2894,-2.4994 0.1621,-2.7613 0.1546,-2.5706 0.1055,-2.6543 -0.063,-0.10762 -0.132,-0.14693 -0.2573,-0.14693 -0.1255,0 -0.2151,0.0499 -0.2659,0.14815 -0.024,0.0467 -0.058,0.53496 -0.1736,2.486 -0.079,1.3353 -0.1386,2.4514 -0.1325,2.4801 0.01,0.0287 0.029,0.0753 0.051,0.10361 0.098,0.12527 0.2494,0.15786 0.383,0.0828 z m -5.2899,-6.5991 c -0.065,-0.0125 -0.1564,-0.11421 -0.1705,-0.18896 -0.01,-0.0507 0.013,-0.14272 0.098,-0.40016 0.1255,-0.38032 0.1692,-0.46055 0.2849,-0.52233 l 0.082,-0.0438 h 6.743 l 0.086,0.0483 c 0.047,0.0266 0.1055,0.077 0.1291,0.11204 0.053,0.0791 0.2581,0.68804 0.258,0.76708 -1e-4,0.0825 -0.067,0.18118 -0.1446,0.21367 -0.057,0.0239 -0.5766,0.0275 -3.6947,0.0252 -1.9955,-0.001 -3.6476,-0.006 -3.6714,-0.011 z m 2.2588,-2.0006 c 0.01,-0.20617 0.013,-0.24875 0.054,-0.33025 0.056,-0.11004 0.1478,-0.19565 0.27,-0.25217 0.086,-0.0397 0.1118,-0.0407 1.0926,-0.0407 h 1.0047 l 0.097,0.0514 c 0.2217,0.11799 0.3022,0.26893 0.315,0.59101 l 0.01,0.21736 h -0.6038 v -0.2705 h -1.6616 v 0.2705 h -0.5827 z"
     stroke-width="0.019321"
     id="path502"
     style="fill:#8da1bd" />
  <text
     x="89.048935"
     y="-16.567625"
     font-family="Makertone"
     font-size="23.706px"
     letter-spacing="0px"
     stroke-width="0.80817"
     style="line-height:1.25;fill:#132e40"
     xml:space="preserve"
     id="text508"><tspan
       x="89.048935"
       y="-16.567625"
       fill="#132e40"
       stroke-width="0.80817"
       id="tspan506">+</tspan></text>
  <text
     transform="scale(1.3019823,0.76805959)"
     x="53.739086"
     y="-28.707109"
     font-family="Arial"
     font-size="14.3602px"
     letter-spacing="0px"
     stroke-opacity="0.28094"
     stroke-width="0.489537"
     style="line-height:1.25;fill:#132e40"
     xml:space="preserve"
     id="text512"><tspan
       x="53.739086"
       y="-28.707109"
       fill="#132e40"
       font-family="Arial"
       stroke-opacity="0.28094"
       stroke-width="0.489537"
       id="tspan510">I</tspan></text>
  <path
     d="m 68.009987,-24.587329 1.2999,-1.0982 3.264104,2.7231 3.2315,-3.1062 1.2592,1.2258 -4.5902,4.5152 z"
     id="path514"
     style="fill:#132e40" />
  <path
     d="m 47.809987,-20.397329 c -0.055,-0.0192 -0.1355,-0.0582 -0.1787,-0.0868 -0.091,-0.0605 -0.2021,-0.21989 -0.2318,-0.33382 -0.022,-0.0857 -0.4844,-5.7322 -0.4844,-5.9196 0,-0.092 0.01,-0.12345 0.048,-0.16984 0.026,-0.0313 0.072,-0.0669 0.1015,-0.079 0.04,-0.0163 0.8074,-0.0207 2.9356,-0.017 l 2.8821,0.005 0.052,0.0483 c 0.1177,0.10863 0.1272,-0.11067 -0.1357,3.1382 -0.2374,2.9345 -0.2407,2.969 -0.2919,3.0833 -0.06,0.13293 -0.1795,0.2534 -0.3138,0.31545 l -0.09,0.0418 -2.0963,0.004 c -1.9767,0.004 -2.1021,0.002 -2.1965,-0.0304 z m 0.8208,-0.60975 c 0.069,-0.0359 0.1317,-0.1048 0.1577,-0.17351 0.016,-0.0428 -0.013,-0.61098 -0.1249,-2.4538 -0.08,-1.3189 -0.1552,-2.4323 -0.1666,-2.4743 -0.06,-0.21994 -0.3303,-0.29487 -0.4896,-0.13557 -0.041,0.0408 -0.072,0.0945 -0.08,0.13915 -0.01,0.0409 0.052,1.13 0.1354,2.4871 0.1386,2.2438 0.1519,2.4194 0.1887,2.485 0.074,0.13098 0.2544,0.19096 0.3794,0.12591 z m 1.5063,-0.0245 c 0.028,-0.0207 0.069,-0.0617 0.09,-0.0911 0.04,-0.0532 0.04,-0.0587 0.04,-2.5332 0,-2.4745 -10e-5,-2.48 -0.04,-2.5332 -0.1426,-0.19093 -0.4104,-0.18497 -0.5106,0.0114 -0.038,0.0752 -0.039,0.10893 -0.039,2.5233 v 2.447 l 0.041,0.0725 c 0.059,0.10439 0.1581,0.15825 0.2746,0.14869 0.052,-0.004 0.1157,-0.0244 0.1437,-0.0453 z m 1.4547,0.0101 c 0.1571,-0.0883 0.1385,0.0727 0.2894,-2.4994 0.1621,-2.7613 0.1546,-2.5706 0.1055,-2.6543 -0.063,-0.10762 -0.132,-0.14693 -0.2573,-0.14693 -0.1255,0 -0.2151,0.0499 -0.2659,0.14815 -0.024,0.0467 -0.058,0.53496 -0.1736,2.486 -0.079,1.3353 -0.1386,2.4514 -0.1325,2.4801 0.01,0.0287 0.029,0.0753 0.051,0.10361 0.098,0.12527 0.2494,0.15786 0.383,0.0828 z m -5.2899,-6.5991 c -0.065,-0.0125 -0.1564,-0.11421 -0.1705,-0.18896 -0.01,-0.0507 0.013,-0.14272 0.098,-0.40016 0.1255,-0.38032 0.1692,-0.46055 0.2849,-0.52233 l 0.082,-0.0438 h 6.743 l 0.086,0.0483 c 0.047,0.0266 0.1055,0.077 0.1291,0.11204 0.053,0.0791 0.2581,0.68804 0.258,0.76708 -1e-4,0.0825 -0.067,0.18118 -0.1446,0.21367 -0.057,0.0239 -0.5766,0.0275 -3.6947,0.0252 -1.9955,-10e-4 -3.6476,-0.006 -3.6714,-0.011 z m 2.2588,-2.0006 c 0.01,-0.20617 0.013,-0.24875 0.054,-0.33025 0.056,-0.11004 0.1478,-0.19565 0.27,-0.25217 0.086,-0.0397 0.1118,-0.0407 1.0926,-0.0407 h 1.0047 l 0.097,0.0514 c 0.2217,0.11799 0.3022,0.26893 0.315,0.59101 l 0.01,0.21736 h -0.6038 v -0.2705 h -1.6616 v 0.2705 h -0.5827 z"
     stroke-width="0.019321"
     id="path516"
     style="fill:#132e40" />
  <g
     id="g856"
     transform="translate(-819.18001,-374.32733)"
     style="fill:#8da1bd">
    <path
       d="m 817.6,333.16 c -1.2198,-0.0921 -2.4074,-0.72248 -3.1686,-1.682 -0.51451,-0.6485 -0.81977,-1.3554 -0.94751,-2.1943 -0.0362,-0.2377 -0.0414,-0.90653 -0.009,-1.1367 0.0852,-0.60144 0.2787,-1.188 0.54965,-1.6662 0.48724,-0.85988 1.2489,-1.561 2.1096,-1.9418 0.35514,-0.15716 0.78146,-0.28423 1.1092,-0.33062 0.14907,-0.0211 0.16273,-0.0203 0.22687,0.0128 0.0933,0.0482 0.14718,0.13185 0.14718,0.22858 0,0.11645 -0.0369,0.16732 -0.21996,0.3031 -0.73052,0.54191 -1.1866,1.3547 -1.2905,2.2997 -0.0233,0.21204 -0.0109,0.60362 0.026,0.82267 0.20551,1.2188 1.1008,2.213 2.2826,2.5349 0.84999,0.23156 1.7798,0.0963 2.5492,-0.37074 0.3652,-0.22172 0.72332,-0.55754 0.94859,-0.88951 0.0734,-0.10811 0.14513,-0.152 0.24866,-0.15208 0.0976,-7e-5 0.18175,0.0515 0.22882,0.13998 0.0431,0.0812 0.0412,0.1221 -0.0199,0.42406 -0.26635,1.3139 -1.1425,2.4603 -2.368,3.0985 -0.72588,0.37798 -1.602,0.56018 -2.4029,0.49972 z m 0.74409,-3.7242 c -0.0943,-0.0467 -0.14774,-0.1412 -0.14774,-0.26149 0,-0.30841 -0.15517,-0.66505 -0.39024,-0.89697 -0.23556,-0.23238 -0.58549,-0.38467 -0.88387,-0.38467 -0.11492,0 -0.21873,-0.054 -0.26615,-0.13832 -0.10304,-0.18334 0.0333,-0.38788 0.25861,-0.38788 0.39606,0 0.81899,-0.23447 1.0592,-0.58723 0.13083,-0.19218 0.22247,-0.47817 0.22247,-0.69441 0,-0.11457 0.0514,-0.20977 0.14038,-0.25976 0.1845,-0.1037 0.3858,0.0358 0.3858,0.2673 0,0.30078 0.15364,0.65152 0.38812,0.88599 0.23517,0.23517 0.58677,0.38811 0.89222,0.38811 0.12566,0 0.21501,0.0497 0.26129,0.14528 0.0462,0.0955 0.0464,0.13988 6.3e-4,0.23401 -0.0442,0.0914 -0.14561,0.14691 -0.26832,0.14691 -0.30076,0 -0.65151,0.15364 -0.88598,0.38811 -0.23447,0.23447 -0.38811,0.58522 -0.38811,0.88599 0,0.12271 -0.0555,0.22407 -0.14692,0.26832 -0.0935,0.0453 -0.14122,0.0454 -0.23152,6.1e-4 z m 2.1047,-2.6309 c -0.0892,-0.0442 -0.14766,-0.14195 -0.14795,-0.24761 -6.2e-4,-0.18816 -0.0876,-0.38566 -0.23553,-0.53383 -0.14737,-0.14766 -0.34044,-0.23393 -0.52608,-0.23509 -0.10201,-6.1e-4 -0.20711,-0.0584 -0.25225,-0.13874 -0.0482,-0.0859 -0.0486,-0.16304 -0.002,-0.24748 0.049,-0.0872 0.13803,-0.13357 0.2804,-0.14601 0.39182,-0.0343 0.6988,-0.34547 0.72967,-0.73979 0.0117,-0.14964 0.056,-0.23702 0.14554,-0.28736 0.0819,-0.046 0.15717,-0.0472 0.2418,-0.004 0.0893,0.0459 0.128,0.12099 0.14621,0.28376 0.0199,0.17753 0.0688,0.30611 0.16538,0.4346 0.13386,0.17808 0.34156,0.29258 0.56724,0.31274 0.15722,0.0141 0.23458,0.0556 0.28061,0.15066 0.0463,0.0955 0.0464,0.13989 6.3e-4,0.23401 -0.0423,0.0873 -0.14509,0.14679 -0.25441,0.14712 -0.18059,6.2e-4 -0.38049,0.09 -0.5263,0.23553 -0.14766,0.14737 -0.23394,0.34044 -0.2351,0.52608 -6.2e-4,0.10956 -0.0601,0.2122 -0.14733,0.25442 -0.0935,0.0453 -0.14122,0.0454 -0.23154,6.2e-4 z"
       stroke-width="0.01754"
       id="path850" />
    <path
       d="m 776.09,332.72 h 7.1319 c -0.39575,-2.4967 -0.50708,-4.0951 -2.783,-4.8322 h -1.6967 c -1.9644,0.7122 -2.2621,2.3451 -2.6522,4.8322 z"
       id="path852" />
    <circle
       cx="779.57001"
       cy="326.07001"
       r="1.9099"
       id="circle854" />
  </g>
  <path
     d="m -24.830013,-41.737329 h 6.5269 c -0.39575,-2.4967 -0.50708,-4.6243 -2.783,-5.3613 h -1.6967 c -2.0263,0.7741 -1.9477,3.1649 -2.0472,5.3613 z"
     fill-opacity="0.56048"
     opacity="0.76619"
     id="path858"
     style="fill:#8da1bd" />
  <circle
     cx="-21.960043"
     cy="-48.907314"
     r="1.9099"
     fill-opacity="0.56048"
     opacity="0.76619"
     id="circle860"
     style="fill:#8da1bd" />
  <path
     d="m -23.390013,-41.787329 6.7574,0.0288 c -0.22288,-2.756 -0.3054,-4.8442 -2.5814,-5.5812 h -1.6967 c -1.9644,0.7122 -2.2909,2.9213 -2.4794,5.5524 z"
     fill="#8397b3"
     id="path864" />
  <circle
     cx="-20.089987"
     cy="-49.157314"
     r="1.9099"
     fill="#8397b3"
     id="circle866" />
  <text
     x="-19.904501"
     y="-39.028316"
     fill="#bcd4ff"
     font-family="Makertone"
     font-size="9.2843px"
     letter-spacing="0px"
     stroke-width="0.31651"
     style="line-height:1.25;mix-blend-mode:normal"
     xml:space="preserve"
     id="text870"><tspan
       x="-19.904501"
       y="-39.028316"
       fill="#bcd4ff"
       stroke-width="0.31651"
       id="tspan868">+</tspan></text>
  <path
     d="M -1.3283454e-5,7.9526708 H 4.8067867 c -0.29145,-1.8387 -0.37345,-3.4056 -2.0496,-3.9485 h -1.2495 c -1.49229998,0.57011 -1.43439998,2.3309 -1.507699983454,3.9485 z"
     opacity="0.76619"
     id="path874"
     style="fill:#8da1bd;fill-opacity:0.56048" />
  <circle
     cx="2.1099653"
     cy="2.6626611"
     r="1.4065"
     opacity="0.76619"
     id="circle876"
     style="fill:#8da1bd;fill-opacity:0.56048" />
  <path
     d="m 4.0799867,7.9626708 h 4.8069 c -0.29146,-1.8387 -0.37346,-3.4056 -2.0496,-3.9485 h -1.2495 c -1.4923,0.57011 -1.4344,2.3309 -1.5077,3.9485 z"
     opacity="0.76619"
     id="path878"
     style="fill:#8da1bd;fill-opacity:0.56048" />
  <circle
     cx="6.1899824"
     cy="2.6826806"
     r="1.4065"
     opacity="0.76619"
     id="circle880"
     style="fill:#8da1bd;fill-opacity:0.56048" />
  <path
     d="m 1.2099807,8.7526752 6.2432,0.0266 c -0.20592,-2.5463 -0.28216,-4.4756 -2.3849,-5.1566 h -1.5676 c -1.8149,0.658 -2.1166,2.699 -2.2907,5.1299 z"
     fill="#0b1a24"
     id="path884" />
  <circle
     cx="4.2599554"
     cy="1.9726586"
     r="1.7645"
     fill="#0b1a24"
     id="circle886" />
  <path
     d="m -3.2200133,-21.237329 c -1.2198,-0.0921 -2.4074,-0.72248 -3.1686,-1.682 -0.51451,-0.6485 -0.81977,-1.3554 -0.94751,-2.1943 -0.0362,-0.2377 -0.0414,-0.90653 -0.009,-1.1367 0.0852,-0.60144 0.2787,-1.188 0.54965,-1.6662 0.48724,-0.85988 1.2489,-1.561 2.1096,-1.9418 0.35514,-0.15716 0.78146,-0.28423 1.1092,-0.33062 0.14907,-0.0211 0.16273,-0.0203 0.22687,0.0128 0.0933,0.0482 0.14718,0.13185 0.14718,0.22858 0,0.11645 -0.0369,0.16732 -0.21996,0.3031 -0.73052,0.54191 -1.1866,1.3547 -1.2905,2.2997 -0.0233,0.21204 -0.0109,0.60362 0.026,0.82267 0.20551,1.2188 1.1008,2.213 2.2826,2.5349 0.84999,0.23156 1.77980002,0.0963 2.54920002,-0.37074 0.3652,-0.22172 0.72332,-0.55754 0.94858998,-0.88951 0.0734,-0.10811 0.14513,-0.152 0.24866,-0.15208 0.0976,-7e-5 0.18175,0.0515 0.22882,0.13998 0.0431,0.0812 0.0412,0.1221 -0.0199,0.42406 -0.26635,1.3139 -1.14249998,2.4603 -2.36799998,3.0985 -0.72588002,0.37798 -1.60200002,0.56018 -2.40290002,0.49972 z m 0.74409,-3.7242 c -0.0943,-0.0467 -0.14774,-0.1412 -0.14774,-0.26149 0,-0.30841 -0.15517,-0.66505 -0.39024,-0.89697 -0.23556,-0.23238 -0.58549,-0.38467 -0.88387,-0.38467 -0.11492,0 -0.21873,-0.054 -0.26615,-0.13832 -0.10304,-0.18334 0.0333,-0.38788 0.25861,-0.38788 0.39606,0 0.81899,-0.23447 1.0592,-0.58723 0.13083,-0.19218 0.22247,-0.47817 0.22247,-0.69441 0,-0.11457 0.0514,-0.20977 0.14038,-0.25976 0.1845,-0.1037 0.3858,0.0358 0.3858,0.2673 0,0.30078 0.15364,0.65152 0.38812,0.88599 0.23517,0.23517 0.58677,0.38811 0.89222002,0.38811 0.12566,0 0.21501,0.0497 0.26129,0.14528 0.0462,0.0955 0.0464,0.13988 6.3e-4,0.23401 -0.0442,0.0914 -0.14561,0.14691 -0.26832,0.14691 -0.30076002,0 -0.65151002,0.15364 -0.88598002,0.38811 -0.23447,0.23447 -0.38811,0.58522 -0.38811,0.88599 0,0.12271 -0.0555,0.22407 -0.14692,0.26832 -0.0935,0.0453 -0.14122,0.0454 -0.23152,6.1e-4 z m 2.10470002,-2.6309 c -0.0892,-0.0442 -0.14766,-0.14195 -0.14795,-0.24761 -6.2e-4,-0.18816 -0.0876,-0.38566 -0.23553,-0.53383 -0.14737,-0.14766 -0.34044002,-0.23393 -0.52608002,-0.23509 -0.10201,-6.1e-4 -0.20711,-0.0584 -0.25225,-0.13874 -0.0482,-0.0859 -0.0486,-0.16304 -0.002,-0.24748 0.049,-0.0872 0.13803,-0.13357 0.2804,-0.14601 0.39182002,-0.0343 0.69880002,-0.34547 0.72967002,-0.73979 0.0117,-0.14964 0.056,-0.23702 0.14554,-0.28736 0.0819,-0.046 0.15717,-0.0472 0.2418,-0.004 0.0893,0.0459 0.128,0.12099 0.14621,0.28376 0.0199,0.17753 0.0688,0.30611 0.16538,0.4346 0.13386,0.17808 0.34156,0.29258 0.56724,0.31274 0.15722,0.0141 0.23458,0.0556 0.28060998,0.15066 0.0463,0.0955 0.0464,0.13989 6.3e-4,0.23401 -0.0423,0.0873 -0.14508998,0.14679 -0.25440998,0.14712 -0.18059,6.2e-4 -0.38049,0.09 -0.5263,0.23553 -0.14766,0.14737 -0.23394,0.34044 -0.2351,0.52608 -6.2e-4,0.10956 -0.0601,0.2122 -0.14733,0.25442 -0.0935,0.0453 -0.14122,0.0454 -0.23154,6.2e-4 z"
     stroke-width="0.01754"
     id="path888"
     style="fill:#132e40" />
  <path
     d="m -44.740013,-21.677329 h 7.1319 c -0.39575,-2.4967 -0.50708,-4.0951 -2.783,-4.8322 h -1.6967 c -1.9644,0.7122 -2.2621,2.3451 -2.6522,4.8322 z"
     id="path890"
     style="fill:#132e40" />
  <circle
     cx="-41.260029"
     cy="-28.32733"
     r="1.9099"
     id="circle892"
     style="fill:#132e40" />
  <path
     d="m -26.480013,-21.797329 h 6.5269 c -0.39575,-2.4967 -0.50708,-4.6243 -2.783,-5.3613 h -1.6967 c -2.0263,0.7741 -1.9477,3.1649 -2.0472,5.3613 z"
     opacity="0.76619"
     id="path894"
     style="fill:#132e40" />
  <circle
     cx="-23.610006"
     cy="-28.977324"
     r="1.9099"
     opacity="0.76619"
     id="circle896"
     style="fill:#132e40" />
  <path
     d="m -25.040013,-21.857329 6.7574,0.0288 c -0.22288,-2.756 -0.3054,-4.8442 -2.5814,-5.5812 h -1.6967 c -1.9644,0.7122 -2.2909,2.9213 -2.4794,5.5524 z"
     id="path898"
     style="fill:#132e40" />
  <circle
     cx="-21.740011"
     cy="-29.227324"
     r="1.9099"
     id="circle900"
     style="fill:#132e40" />
  <text
     x="-21.552971"
     y="-19.097227"
     fill="#294675"
     font-family="Makertone"
     font-size="9.2843px"
     letter-spacing="0px"
     stroke-width="0.31651"
     style="line-height:1.25;mix-blend-mode:normal"
     xml:space="preserve"
     id="text906"><tspan
       x="-21.552971"
       y="-19.097227"
       fill="#294675"
       stroke-width="0.31651"
       id="tspan904">+</tspan></text>
  <rect
     x="-46.410027"
     y="1.9226707"
     width="7.0167999"
     height="8.2264996"
     ry="1.0346"
     fill="#0b1a24"
     stroke="#8da1bd"
     stroke-width="0.5"
     id="rect918" />
  <path
     d="m -45.310347,3.3786828 h 4.620805"
     id="path920"
     style="fill:none;stroke:#8da1bd;stroke-width:0.365438px" />
  <path
     d="m -45.296535,4.2350268 h 1.736721"
     id="path922"
     style="fill:none;stroke:#8da1bd;stroke-width:0.365438px" />
  <path
     d="m -45.310347,5.5716828 h 4.620805"
     id="path926"
     style="fill:none;stroke:#8da1bd;stroke-width:0.365438px" />
  <path
     d="m -45.296535,6.4280268 h 1.736721"
     id="path928"
     style="fill:none;stroke:#8da1bd;stroke-width:0.365438px" />
  <path
     d="m -45.310347,7.7636828 h 4.620805"
     id="path932"
     style="fill:none;stroke:#8da1bd;stroke-width:0.365438px" />
  <path
     d="m -45.296535,8.6200268 h 1.736721"
     id="path934"
     style="fill:none;stroke:#8da1bd;stroke-width:0.365438px" />
  <path
     d="m -29.060013,1.9926708 h 6.197 c 0.48511,0 0.87566,0.39055 0.87566,0.87568 v 4.5804 c 0,0.48513 -0.39055,0.87568 -0.87566,0.87568 h -3.2231 c -0.37216,0.96644 -1.1947,1.8222002 -2.8383,1.9570002 0.58372,-0.8153402 0.72328,-1.1638002 0.78724,-1.9570002 h -0.9228 c -0.48513,0 -0.87568,-0.39055 -0.87568,-0.87568 v -4.5804 c 0,-0.48513 0.39055,-0.87568 0.87568,-0.87568 z"
     fill="#0b1a24"
     stroke-width="0.5"
     id="path938"
     style="stroke:#8da1bd" />
  <path
     d="m -14.190013,1.7026708 h 1.608 c 0.092,-0.008 0.13383,0.0278 0.16121,0.0762 l 0.58046,0.45207 h 4.1089997 c 0.35136,0 0.63421,0.42554 0.63421,0.78265 v 4.4255 c 0,0.3571 -0.28285,0.64457 -0.63421,0.64457 h -6.4586997 c -0.35135,0 -0.6342,-0.28747 -0.6342,-0.64457 v -5.0919 c 0,-0.3571 0.28285,-0.64459 0.6342,-0.64459 z"
     fill="#0b1a24"
     stroke-width="0.5"
     id="path940"
     style="stroke:#8da1bd" />
  <path
     d="m -13.830013,7.1726708 v -4.2904 h 5.9433997 v 4.3647 z"
     fill="#303b49"
     stroke-width="0.24121px"
     id="path942"
     style="stroke:#8da1bd" />
  <path
     d="m -13.450013,3.7226708 h 6.5097997 c 0.33706,0 0.68535,0.28025 0.60842,0.60842 l -0.77478,3.3054 c -0.077,0.32818 -0.27136,0.60842 -0.60843,0.60842 h -6.5097997 c -0.33706,0 -0.68534,-0.28024 -0.60841,-0.60842 l 0.77478,-3.3054 c 0.0769,-0.32817 0.27135,-0.60842 0.60841,-0.60842 z"
     fill="#0b1a24"
     stroke-width="0.5"
     id="path944"
     style="stroke:#8da1bd" />
  <path
     d="m 1.2099807,8.7526752 c 2.0811,0.009 4.1621,0.0177 6.2432,0.0266 0.01,-1.2894 -0.13132,-2.6253 -0.7158,-3.7926 -0.33189,-0.65902 -1.0271,-1.2475 -1.7756,-1.3772 0.46019,-0.41458 1.0096,-0.64663 1.073,-1.576 0.0634,-0.92941 -0.55878,-1.66300002 -1.2663,-1.77280002 -0.70755,-0.10981 -1.295,-0.0397 -1.8068,0.54632001 -0.51182,0.58600001 -0.49172,1.29270001 -0.29303,1.80250001 0.19869,0.50984 0.54496,0.78111 1.0504,0.97625 -0.92448,0.1952 -1.5555,1.0253 -1.9093,1.8523 -0.4417,1.044 -0.57314,2.1904 -0.59967,3.3147 z"
     fill="none"
     stroke="#8da1bd"
     stroke-linecap="round"
     stroke-linejoin="bevel"
     stroke-width="0.442"
     id="path948" />
  <path
     d="m 3.0999807,2.9126752 c 0.17602,0.3065 0.8244,0.68722 0.78527,0.68544 0.006,0.12645 -0.0466,0.0733 -0.0466,0.0733 0,0 -0.59227,0.2928 -0.77862,0.49244 -0.18631,0.19965 2.7018,0.0599 2.7018,0.0599 0,0 -0.57231,-0.49244 -0.97159,-0.55233 -0.39929,-0.0599 -0.2795,-0.17967 -0.2795,-0.17967 l 0.22625,0.11313 0.74533,-0.74533 z"
     fill="#0b1a24"
     id="path950" />
  <path
     d="m 19.839981,16.482675 0.0808,0.83512 1.0236,0.2424 0.45794,1.1583 -0.53875,0.9967 0.67344,0.5388 0.86201,-0.5657 1.0506,0.431 0.10775,1.1044 1.1314,0.054 0.0808,-1.0775 1.293,-0.5118 0.59263,0.5656 0.86201,-0.6734 -0.61957,-0.9698 0.45794,-1.0236 1.0775,-0.1885 v -1.05061 l -1.0236,-0.0808 -0.45795,-1.3469 0.5657,-0.72733 -0.72732,-0.59264 -0.7812,0.59264 -1.2122,-0.51182 -0.10775,-0.9967 h -0.99671 l -0.2155,1.0236 -1.0506,0.48488 -0.91588,-0.67345 -0.70039,0.72732 0.53876,0.80814 -0.37713,1.2661 z"
     fill="#0b1a24"
     id="path952" />
  <path
     d="m 23.449279,21.381294 c -0.0037,-0.02141 -0.0287,-0.252781 -0.05376,-0.514005 -0.02496,-0.261233 -0.05086,-0.497334 -0.0575,-0.524683 -0.01103,-0.04572 -0.02543,-0.05376 -0.183481,-0.100585 -0.241094,-0.07143 -0.566345,-0.213933 -0.7535,-0.330188 -0.02263,-0.01412 -0.107495,0.04684 -0.440423,0.316519 -0.226779,0.183686 -0.424303,0.344016 -0.438935,0.356302 -0.02291,0.01917 -0.09672,-0.04796 -0.530386,-0.482272 l -0.503777,-0.504599 0.226022,-0.276343 c 0.124352,-0.15199 0.284524,-0.348663 0.356012,-0.437047 l 0.130019,-0.160704 -0.03553,-0.06386 c -0.01945,-0.03506 -0.05208,-0.09368 -0.07237,-0.130289 -0.06816,-0.122557 -0.180012,-0.398236 -0.235942,-0.581202 l -0.05544,-0.181321 -0.06648,-0.01243 c -0.03646,-0.0065 -0.272378,-0.03216 -0.524112,-0.05675 -0.251734,-0.02459 -0.475185,-0.04834 -0.496549,-0.05292 l -0.0388,-0.0084 v -1.414064 l 0.0561,-0.0097 c 0.03095,-0.0056 0.280503,-0.03216 0.554724,-0.05984 0.274211,-0.02768 0.504019,-0.05675 0.510676,-0.0647 0.0065,-0.0084 0.03319,-0.08639 0.0589,-0.174449 0.05488,-0.188183 0.155889,-0.42924 0.263449,-0.628755 0.04226,-0.07845 0.0734,-0.150737 0.0691,-0.160545 -0.0037,-0.0096 -0.163481,-0.208249 -0.353712,-0.440984 l -0.345896,-0.423153 0.503739,-0.504599 c 0.434383,-0.435112 0.507395,-0.501486 0.53034,-0.482104 0.01468,0.01243 0.197599,0.160994 0.406585,0.3303 0.208987,0.169288 0.392795,0.318726 0.408446,0.332077 0.02496,0.02141 0.05965,0.0084 0.287899,-0.104185 0.208735,-0.103343 0.435813,-0.190118 0.68751,-0.262607 0.02655,-0.0084 0.03301,-0.05236 0.08424,-0.586934 0.02459,-0.256484 0.04834,-0.483815 0.05292,-0.505198 l 0.0084,-0.0388 h 1.414905 l 0.0084,0.0388 c 0.0037,0.02141 0.0287,0.248714 0.05404,0.505198 0.02515,0.256484 0.05096,0.49236 0.05722,0.524178 0.01103,0.05638 0.01571,0.05928 0.192447,0.113581 0.262206,0.0806 0.557341,0.209978 0.745347,0.326785 0.03029,0.01879 0.06208,-0.0056 0.670671,-0.504394 l 0.233165,-0.191241 0.504599,0.503908 c 0.434308,0.433737 0.501477,0.507619 0.482272,0.530526 -0.01243,0.01468 -0.172616,0.212157 -0.356302,0.438936 -0.269714,0.332993 -0.330618,0.41774 -0.316519,0.440422 0.111497,0.179601 0.251575,0.498728 0.326617,0.744413 0.05086,0.166305 0.05928,0.181863 0.104456,0.19268 0.02711,0.0065 0.263028,0.03235 0.524253,0.05732 0.261224,0.02496 0.492454,0.04918 0.513818,0.05376 l 0.0388,0.0084 v 1.414905 l -0.0388,0.0084 c -0.02141,0.0037 -0.271416,0.0316 -0.55564,0.06021 -0.284253,0.02861 -0.521962,0.05815 -0.528254,0.06545 -0.0065,0.0065 -0.02889,0.07555 -0.0503,0.151616 -0.05227,0.185809 -0.19428,0.528694 -0.27912,0.673869 -0.03796,0.06498 -0.06535,0.126428 -0.06096,0.136656 0.0037,0.0096 0.163753,0.20894 0.353984,0.441676 l 0.345896,0.423143 -0.50374,0.504609 c -0.434382,0.435112 -0.507395,0.501486 -0.530348,0.482104 -0.01468,-0.01243 -0.197599,-0.160994 -0.406576,-0.330301 -0.208987,-0.169287 -0.393178,-0.31908 -0.409316,-0.332871 -0.02609,-0.02235 -0.04488,-0.01655 -0.172719,0.05292 -0.188136,0.102389 -0.411625,0.195158 -0.635599,0.263832 l -0.181349,0.05573 -0.01393,0.08387 c -0.0084,0.04619 -0.03525,0.297557 -0.06133,0.558781 l -0.0474,0.474961 -1.422292,0.0075 z m 1.067841,-0.440609 c 0.0056,-0.03562 0.03011,-0.266843 0.05488,-0.513818 0.02478,-0.246985 0.05012,-0.454429 0.05638,-0.460992 0.0065,-0.0065 0.08527,-0.02796 0.175534,-0.0475 0.356134,-0.07723 0.713651,-0.224199 1.006319,-0.413766 0.08957,-0.05787 0.167726,-0.105428 0.173897,-0.105428 0.0056,0 0.156122,0.118555 0.333226,0.263383 0.177114,0.144876 0.360267,0.29393 0.407016,0.331264 l 0.08499,0.06788 0.240804,-0.240346 c 0.132505,-0.132234 0.240822,-0.244946 0.240822,-0.250556 0,-0.0056 -0.08359,-0.111645 -0.185677,-0.235755 -0.359276,-0.436411 -0.470641,-0.574592 -0.470641,-0.58396 0,-0.0056 0.04806,-0.08499 0.106812,-0.177216 0.192858,-0.303065 0.335527,-0.650924 0.412364,-1.005478 0.01945,-0.09023 0.04086,-0.169063 0.0475,-0.175168 0.0065,-0.0056 0.214017,-0.03151 0.460991,-0.05647 0.246985,-0.02496 0.478196,-0.04974 0.513837,-0.05516 l 0.0648,-0.0096 v -0.685705 l -0.0734,-0.0096 c -0.04039,-0.0056 -0.271584,-0.02973 -0.513809,-0.05404 -0.242235,-0.02431 -0.445799,-0.04955 -0.452362,-0.05591 -0.0065,-0.0065 -0.02796,-0.08564 -0.0475,-0.175832 -0.0777,-0.358163 -0.224162,-0.713624 -0.416786,-1.010994 -0.07573,-0.116892 -0.103634,-0.17415 -0.09247,-0.189904 0.0084,-0.01243 0.128635,-0.160059 0.266413,-0.328085 0.137751,-0.168044 0.280971,-0.344007 0.318305,-0.391027 l 0.06788,-0.08555 -0.240355,-0.240804 c -0.132225,-0.132505 -0.244338,-0.240748 -0.249219,-0.240673 -0.0056,8.4e-5 -0.189081,0.147755 -0.409353,0.328159 -0.220272,0.180395 -0.405575,0.32801 -0.411784,0.32801 -0.0056,0 -0.09367,-0.0517 -0.194242,-0.114825 -0.308992,-0.193961 -0.63659,-0.328112 -0.985656,-0.403649 -0.09172,-0.01992 -0.171868,-0.04142 -0.178169,-0.04806 -0.0065,-0.0065 -0.0316,-0.214073 -0.05638,-0.461048 -0.02468,-0.246985 -0.04946,-0.478196 -0.05488,-0.513819 l -0.0096,-0.06479 h -0.685705 l -0.0096,0.0734 c -0.0056,0.0403 -0.02954,0.271574 -0.05357,0.513762 -0.02403,0.242198 -0.04918,0.445799 -0.05582,0.452428 -0.0065,0.0065 -0.08723,0.02833 -0.178881,0.04806 -0.349102,0.07555 -0.676701,0.209688 -0.985656,0.403649 -0.100594,0.06311 -0.187557,0.114825 -0.193148,0.114825 -0.0056,0 -0.174158,-0.134029 -0.374562,-0.29794 -0.200394,-0.163856 -0.383791,-0.312714 -0.40752,-0.330768 l -0.0431,-0.03291 -0.486694,0.486695 0.06797,0.08508 c 0.03731,0.04684 0.187005,0.230678 0.332535,0.408596 0.145529,0.177926 0.26099,0.332937 0.256567,0.344465 -0.0037,0.01103 -0.0475,0.08153 -0.09589,0.155525 -0.190138,0.291246 -0.357957,0.705124 -0.426117,1.050824 -0.01646,0.08321 -0.03843,0.15113 -0.04909,0.151148 -0.02954,2.8e-5 -0.873009,0.08452 -0.956204,0.09575 l -0.0734,0.0096 v 0.685705 l 0.06479,0.0096 c 0.03562,0.0056 0.266853,0.03029 0.513828,0.05516 0.246984,0.02496 0.454428,0.0504 0.460992,0.05647 0.0065,0.0056 0.02805,0.08499 0.0475,0.175178 0.07695,0.35432 0.22576,0.716222 0.413672,1.006319 0.05788,0.08938 0.105419,0.168109 0.105419,0.174757 0,0.0065 -0.118546,0.156572 -0.263393,0.333171 -0.144856,0.176608 -0.293555,0.359808 -0.330431,0.407137 l -0.06704,0.08611 0.486021,0.486022 0.08564,-0.06797 c 0.04712,-0.03731 0.224433,-0.181022 0.393992,-0.319249 0.169568,-0.138209 0.318295,-0.257354 0.330496,-0.264777 0.01393,-0.0084 0.08321,0.02599 0.186996,0.09331 0.292238,0.189305 0.653168,0.337864 1.00847,0.415065 0.09023,0.01963 0.169549,0.04105 0.176243,0.04768 0.0065,0.0065 0.03179,0.210174 0.05582,0.452372 0.02403,0.242188 0.04825,0.473389 0.05357,0.513762 l 0.0096,0.0734 h 0.685705 z m -0.663144,-2.032927 c -0.412812,-0.06825 -0.765786,-0.245002 -1.06728,-0.534472 -0.336499,-0.323054 -0.530769,-0.696962 -0.59892,-1.152737 -0.03272,-0.219468 -0.03319,-0.374001 -9.35e-4,-0.584792 0.06339,-0.420638 0.238747,-0.776305 0.53464,-1.084484 0.242216,-0.252285 0.493922,-0.412616 0.818529,-0.521373 0.582754,-0.195233 1.240531,-0.10266 1.75664,0.247368 0.148849,0.100866 0.406277,0.355956 0.508358,0.503636 0.55707,0.805841 0.462151,1.874822 -0.227574,2.562687 -0.279858,0.27912 -0.591216,0.449557 -0.99753,0.546056 -0.161499,0.03843 -0.54514,0.04797 -0.725395,0.01814 z m 0.63545,-0.416814 c 0.501953,-0.103493 0.942647,-0.464947 1.144228,-0.93872 0.08387,-0.197197 0.11993,-0.380312 0.12007,-0.610607 2.72e-4,-0.461488 -0.149157,-0.821605 -0.474511,-1.143481 -0.209165,-0.206948 -0.399087,-0.318099 -0.699823,-0.40954 -0.140893,-0.04282 -0.515745,-0.06105 -0.677113,-0.03301 -0.512706,0.08929 -0.946106,0.41674 -1.170221,0.884099 -0.108186,0.225526 -0.140658,0.35618 -0.151383,0.608111 -0.01103,0.272799 0.01244,0.436205 0.09396,0.64234 0.09331,0.235223 0.18664,0.379284 0.35892,0.553527 0.233791,0.236475 0.49165,0.381238 0.79448,0.446061 0.163762,0.03506 0.494334,0.03562 0.661358,9.34e-4 z"
     color="#000000"
     stroke-width="0.017271"
     style="fill:#8da1bd;-inkscape-stroke:none"
     id="path954" />
  <path
     d="m 23.449279,12.433536 -0.01094,0.04563 c -0.0019,0.0065 -0.0037,0.02459 -0.0075,0.05292 -0.0028,0.02833 -0.0065,0.06563 -0.01094,0.111393 -0.0096,0.09163 -0.02244,0.213232 -0.03469,0.341492 -0.02562,0.267274 -0.03983,0.410999 -0.05114,0.489406 -0.0056,0.03918 -0.0099,0.06255 -0.01459,0.07489 -0.0019,0.0065 -0.0056,0.0093 -0.0075,0.01094 -0.0019,0.0019 -0.0028,0.0028 -0.0056,0.0037 -0.252136,0.07265 -0.479214,0.159368 -0.688454,0.262963 -0.114086,0.05629 -0.179703,0.08798 -0.21914,0.102259 -0.01973,0.0075 -0.03347,0.01103 -0.04198,0.01094 -0.0084,-2.8e-5 -0.01122,-0.0028 -0.01645,-0.0075 -0.0084,-0.0075 -0.05928,-0.0475 -0.133301,-0.107738 -0.07405,-0.06021 -0.17125,-0.139967 -0.275753,-0.22462 -0.104484,-0.08461 -0.202059,-0.164762 -0.275744,-0.22461 -0.07368,-0.05984 -0.124699,-0.100174 -0.131477,-0.105914 -0.0047,-0.0037 -0.01141,-0.0047 -0.01823,-0.0037 -0.0065,9.35e-4 -0.01477,0.0037 -0.02375,0.0093 -0.01786,0.01094 -0.04245,0.03132 -0.08031,0.06573 -0.07573,0.06882 -0.202806,0.193308 -0.420011,0.410877 l -0.507667,0.511322 0.350618,0.429137 c 0.09511,0.116359 0.182368,0.223218 0.246526,0.30314 0.03207,0.03992 0.05825,0.07321 0.07667,0.09679 0.0093,0.01178 0.01692,0.02253 0.02188,0.02917 0.0028,0.0037 0.0037,0.0056 0.0056,0.0075 v 0.0019 0.0019 c -4.12e-4,0.0028 -4.12e-4,0.0065 -0.0019,0.01094 -0.0028,0.0093 -0.0084,0.02029 -0.01459,0.03469 -0.01234,0.0288 -0.03011,0.06685 -0.05114,0.105914 -0.107859,0.200086 -0.20966,0.441002 -0.264787,0.630018 -0.01281,0.04394 -0.0259,0.08546 -0.03656,0.116873 -0.0056,0.01571 -0.0093,0.0287 -0.01281,0.03833 -0.0019,0.0047 -0.0037,0.0099 -0.0056,0.01281 -2.62e-4,5.7e-4 2.24e-4,9.35e-4 0,0.0019 l -0.0019,0.0019 c -0.0019,5.23e-4 -0.0037,9.35e-4 -0.0075,0.0019 -0.0075,0.0019 -0.01776,0.0037 -0.03104,0.0056 -0.02665,0.0047 -0.06517,0.0084 -0.111394,0.01458 -0.09247,0.01169 -0.217224,0.02637 -0.354273,0.04021 -0.137124,0.01384 -0.268311,0.02758 -0.368878,0.03833 -0.100566,0.01075 -0.170961,0.01879 -0.18809,0.02188 l -0.06208,0.01094 v 1.428088 l 0.04563,0.0093 c 0.0065,0.0019 0.02319,0.0037 0.05114,0.0075 0.02796,0.0028 0.06638,0.0084 0.111393,0.01281 0.09004,0.0095 0.208295,0.02057 0.334181,0.03282 0.125839,0.01225 0.248349,0.0244 0.343315,0.03469 0.09497,0.01028 0.163809,0.01889 0.180788,0.02188 l 0.06031,0.01281 0.05479,0.175309 c 0.05619,0.183723 0.166688,0.458682 0.235578,0.582539 0.02029,0.03665 0.05357,0.09643 0.07302,0.131477 l 0.03291,0.05844 -0.126007,0.155226 c -0.07143,0.08835 -0.231754,0.286291 -0.356097,0.438272 l -0.231912,0.281223 0.509489,0.511322 c 0.21685,0.217168 0.344175,0.341922 0.420012,0.410877 0.03796,0.0345 0.06246,0.0547 0.08031,0.06573 0.0093,0.0056 0.01683,0.0084 0.02375,0.0094 0.0065,9.35e-4 0.01356,2.71e-4 0.01823,-0.0037 0.01365,-0.0115 0.211493,-0.172411 0.438272,-0.356097 0.166426,-0.134815 0.272528,-0.21786 0.337836,-0.264786 0.03263,-0.02347 0.05395,-0.03815 0.06938,-0.04563 0.0075,-0.0037 0.0144,-0.0047 0.01823,-0.0056 0.0037,-6.26e-4 0.0047,-3.83e-4 0.0056,0 0.188286,0.116957 0.513958,0.258812 0.756025,0.330534 0.07901,0.02338 0.121089,0.03843 0.144267,0.05114 0.02319,0.01272 0.02749,0.02169 0.03291,0.04385 9.35e-4,0.0056 0.0056,0.02665 0.0093,0.05666 0.0037,0.03001 0.0075,0.06938 0.01281,0.116872 0.01038,0.09504 0.02403,0.220039 0.03656,0.350618 0.01253,0.130635 0.02487,0.253763 0.03469,0.346962 0.0047,0.04656 0.0075,0.08443 0.01094,0.113216 0.0028,0.0288 0.0065,0.04666 0.0075,0.05292 v 0.0019 l 0.01094,0.04385 0.717672,-0.0037 0.719495,-0.0037 0.0475,-0.483927 c 0.013,-0.130589 0.02552,-0.258522 0.03656,-0.359743 0.01103,-0.10123 0.0216,-0.175253 0.02552,-0.197225 l 0.01281,-0.07854 0.175309,-0.05479 c 0.224517,-0.06881 0.448585,-0.162069 0.63732,-0.264786 0.06386,-0.03469 0.101828,-0.05339 0.124174,-0.06031 0.01122,-0.0037 0.01823,-0.0028 0.02375,-0.0019 0.0056,9.35e-4 0.0084,0.0037 0.01459,0.0093 0.0084,0.0075 0.05909,0.0474 0.133309,0.107738 0.07414,0.06031 0.173074,0.139967 0.277568,0.22462 0.104484,0.08461 0.202067,0.164753 0.275744,0.22461 0.07368,0.05984 0.122875,0.100174 0.129663,0.105915 0.0047,0.0037 0.01141,0.0047 0.01823,0.0037 0.0065,-9.34e-4 0.01477,-0.0037 0.02375,-0.0093 0.01786,-0.01094 0.04245,-0.03132 0.08031,-0.06573 0.07573,-0.06882 0.202807,-0.19514 0.420012,-0.41271 l 0.509499,-0.509489 -0.350618,-0.429137 c -0.09511,-0.116359 -0.182312,-0.224872 -0.246535,-0.304972 -0.03207,-0.04002 -0.05825,-0.07312 -0.07667,-0.09678 -0.0093,-0.01178 -0.01683,-0.02066 -0.02188,-0.02739 -0.0028,-0.0037 -0.0037,-0.0056 -0.0056,-0.0075 l -0.0019,-0.0019 v -0.0019 c 2.99e-4,-0.0019 6.45e-4,-0.0056 0.0019,-0.0093 0.0028,-0.0075 0.0075,-0.01889 0.01281,-0.03104 0.01085,-0.0244 0.02683,-0.05544 0.04563,-0.08761 0.08574,-0.146661 0.22677,-0.488593 0.279391,-0.675664 0.01066,-0.03796 0.02206,-0.07489 0.03104,-0.102268 0.0047,-0.01365 0.0075,-0.02459 0.01094,-0.03282 0.0019,-0.0037 0.0047,-0.0084 0.0056,-0.01094 v -0.0019 h 0.0019 c 0.0019,-5.14e-4 0.0037,-9.35e-4 0.0075,-0.0019 0.0075,-0.0019 0.01917,-0.0037 0.03291,-0.0056 0.02749,-0.0047 0.06535,-0.0084 0.113217,-0.01459 0.09565,-0.01187 0.226808,-0.02768 0.368878,-0.04198 0.142145,-0.01431 0.275454,-0.0273 0.376189,-0.03833 0.05039,-0.0056 0.09322,-0.01103 0.124175,-0.01459 0.03095,-0.0037 0.04843,-0.0065 0.05479,-0.0075 h 0.0019 l 0.04563,-0.0093 v -1.430011 l -0.04563,-0.0093 c -0.0065,-0.0019 -0.02599,-0.0037 -0.05479,-0.0075 -0.0288,-0.0037 -0.06666,-0.0075 -0.113217,-0.01281 -0.09312,-0.0097 -0.216336,-0.02225 -0.346971,-0.03469 -0.13057,-0.01253 -0.255642,-0.02431 -0.350618,-0.03469 -0.0475,-0.0056 -0.08695,-0.01084 -0.116872,-0.01459 -0.02992,-0.0037 -0.05133,-0.0056 -0.05657,-0.0075 -0.02179,-0.0056 -0.03048,-0.0084 -0.04385,-0.03282 -0.01328,-0.02459 -0.02758,-0.07031 -0.05292,-0.153393 -0.07527,-0.246563 -0.216495,-0.566149 -0.328701,-0.74689 -3.93e-4,-6.26e-4 -6.27e-4,-0.0019 0,-0.0056 6.26e-4,-0.0037 0.0019,-0.01056 0.0056,-0.01823 0.0075,-0.01543 0.02216,-0.03862 0.04563,-0.07125 0.04694,-0.06526 0.129953,-0.16954 0.264787,-0.336004 0.09181,-0.113385 0.178319,-0.218112 0.24287,-0.29766 0.06451,-0.07957 0.107532,-0.13389 0.113226,-0.140612 0.0037,-0.0047 0.0065,-0.01141 0.0056,-0.01823 -9.35e-4,-0.0065 -0.0056,-0.01477 -0.01094,-0.02375 -0.01103,-0.01795 -0.03123,-0.04245 -0.06573,-0.08031 -0.069,-0.07583 -0.193709,-0.203125 -0.410887,-0.420012 l -0.511312,-0.509489 -0.239224,0.197224 c -0.304289,0.249387 -0.464031,0.379733 -0.551489,0.445574 -0.04376,0.03291 -0.06863,0.04983 -0.08396,0.05657 -0.0075,0.0037 -0.01328,0.0037 -0.01645,0.0037 -0.0028,-9.4e-5 -0.0037,-0.0019 -0.0075,-0.0037 -0.189016,-0.117443 -0.485769,-0.246059 -0.748714,-0.326879 -0.08835,-0.02711 -0.132449,-0.04133 -0.155225,-0.05479 -0.01141,-0.0065 -0.01795,-0.01253 -0.02188,-0.0201 -0.0037,-0.0075 -0.0065,-0.01889 -0.0093,-0.03291 -0.0028,-0.01412 -0.0097,-0.08219 -0.0201,-0.177132 -0.01038,-0.09497 -0.02394,-0.216925 -0.03656,-0.345138 -0.01272,-0.12827 -0.02478,-0.249893 -0.03469,-0.341493 -0.0047,-0.04581 -0.0095,-0.08303 -0.01281,-0.111393 -0.0028,-0.02833 -0.0065,-0.04666 -0.0075,-0.05292 l -0.0093,-0.04563 h -0.714016 z m 0.01281,0.01645 h 1.4006 l 0.0075,0.03291 c 8.51e-4,0.0056 0.0037,0.02375 0.0075,0.05114 0.0028,0.02833 0.0056,0.06564 0.01094,0.111394 0.0099,0.09153 0.02384,0.213269 0.03656,0.341482 0.01262,0.12827 0.02431,0.250089 0.03469,0.345139 0.01038,0.09505 0.01842,0.161293 0.02188,0.178964 0.0028,0.01421 0.0056,0.02599 0.01094,0.03656 0.0056,0.01047 0.01412,0.01954 0.02739,0.0274 0.02655,0.01571 0.07227,0.02945 0.160695,0.05657 0.261467,0.08031 0.556247,0.208875 0.743243,0.325046 0.0047,0.0028 0.0097,0.0056 0.01646,0.0056 0.0065,2.15e-4 0.01468,-0.0019 0.02375,-0.0056 0.01814,-0.0084 0.04357,-0.02524 0.08761,-0.05844 0.08817,-0.06638 0.247199,-0.196178 0.551498,-0.445574 l 0.228266,-0.186267 0.498531,0.498531 c 0.21714,0.21686 0.342484,0.342942 0.410877,0.418189 0.03422,0.03759 0.05414,0.06264 0.06395,0.07854 0.0047,0.0084 0.0065,0.01318 0.0075,0.01646 5.42e-4,0.0028 8.69e-4,0.0047 0,0.0056 -0.0065,0.0084 -0.04862,0.06105 -0.113226,0.140611 -0.06451,0.07957 -0.151028,0.184266 -0.242871,0.297661 -0.13488,0.166529 -0.217355,0.271836 -0.264795,0.337836 -0.02375,0.033 -0.03908,0.05582 -0.0475,0.07302 -0.0037,0.0084 -0.0065,0.01543 -0.0075,0.02188 -9.35e-4,0.0065 -9.35e-4,0.01318 0.0019,0.01823 0.110795,0.178459 0.250285,0.498428 0.325055,0.743234 0.02543,0.08321 0.0417,0.127718 0.05666,0.155225 0.01487,0.02749 0.03141,0.03637 0.05479,0.04198 0.0084,0.0019 0.02833,0.0056 0.05844,0.0093 0.03011,0.0037 0.06937,0.0075 0.116872,0.01281 0.09508,0.01038 0.219973,0.02403 0.350618,0.03656 0.130588,0.01253 0.253875,0.02496 0.346961,0.03469 0.04656,0.0047 0.08452,0.0075 0.113227,0.01094 0.0287,0.0037 0.04918,0.0065 0.05292,0.0075 l 0.03104,0.0075 v 1.4006 l -0.03104,0.0075 c -0.0047,7.67e-4 -0.02394,0.0037 -0.05479,0.0075 -0.03086,0.0037 -0.07386,0.0075 -0.124175,0.01281 -0.100679,0.01103 -0.2341,0.0259 -0.37618,0.0402 -0.142182,0.01431 -0.273042,0.02824 -0.368878,0.04021 -0.04796,0.0056 -0.08733,0.01215 -0.115049,0.01646 -0.01393,0.0019 -0.02496,0.0037 -0.03291,0.0056 -0.0037,8.14e-4 -0.0065,9.35e-4 -0.0093,0.0019 -9.35e-4,3.65e-4 -0.0028,9.35e-4 -0.0037,0.0019 h -0.0019 l -0.0056,0.0056 c -7.29e-4,9.35e-4 -9.35e-4,0.0019 -0.0019,0.0037 -0.0019,0.0028 -0.0019,0.0065 -0.0037,0.01094 -0.0037,0.0084 -0.0084,0.02085 -0.01281,0.03469 -0.0093,0.02777 -0.02029,0.06414 -0.03104,0.102268 -0.05189,0.184546 -0.193607,0.528329 -0.277577,0.672017 -0.01907,0.03272 -0.03628,0.06433 -0.0475,0.08948 -0.0056,0.01262 -0.0101,0.02412 -0.01281,0.03291 -9.35e-4,0.0047 -9.35e-4,0.0075 -0.0019,0.01094 -2.53e-4,0.0019 -0.0019,0.0037 -0.0019,0.0056 l 0.0019,0.0019 c 8.4e-5,4.21e-4 -1.31e-4,0.0037 0,0.0037 1.21e-4,2.99e-4 9.35e-4,0.0028 0.0019,0.0037 l 0.0019,0.0019 c 0.0019,0.0019 0.0028,0.0056 0.0056,0.0093 0.0056,0.0065 0.01262,0.01552 0.02188,0.02739 0.01851,0.02375 0.0446,0.05675 0.07667,0.09678 0.06423,0.08013 0.153225,0.188586 0.24835,0.304972 l 0.339659,0.418179 -0.498531,0.498531 c -0.217177,0.217542 -0.343072,0.342605 -0.418179,0.410887 -0.03759,0.03413 -0.06274,0.05423 -0.07854,0.06395 -0.0075,0.0047 -0.01328,0.0065 -0.01646,0.0075 -0.0028,5.14e-4 -0.0047,9.07e-4 -0.0056,0 -0.0075,-0.0065 -0.05591,-0.04787 -0.129654,-0.107747 -0.07368,-0.05984 -0.171251,-0.138125 -0.275744,-0.222787 -0.104493,-0.08462 -0.203386,-0.164285 -0.277567,-0.22461 -0.07414,-0.06031 -0.124016,-0.103185 -0.131487,-0.109571 -0.0075,-0.0056 -0.0144,-0.01084 -0.02375,-0.01281 -0.0094,-0.0019 -0.0201,-2.62e-4 -0.03291,0.0037 -0.02553,0.0075 -0.06199,0.0273 -0.125998,0.06208 -0.187539,0.102062 -0.410242,0.194457 -0.633674,0.262963 l -0.18809,0.05657 -0.01458,0.08948 c -0.0047,0.02422 -0.01272,0.09774 -0.02375,0.199048 -0.01103,0.101314 -0.02347,0.229117 -0.03656,0.359752 l -0.0475,0.46749 -0.703058,0.0037 -0.704891,0.0037 -0.0075,-0.02917 c -7.58e-4,-0.0047 -0.0019,-0.02422 -0.0056,-0.05292 -0.0028,-0.0288 -0.0075,-0.06666 -0.01281,-0.113217 -0.0098,-0.09312 -0.02216,-0.216383 -0.03469,-0.346971 -0.01243,-0.130654 -0.02609,-0.255465 -0.03656,-0.350618 -0.0056,-0.04759 -0.0093,-0.08854 -0.01281,-0.118695 -0.0037,-0.03011 -0.0075,-0.04825 -0.0093,-0.05657 -0.0056,-0.02356 -0.01393,-0.04217 -0.0402,-0.05657 -0.02627,-0.0144 -0.06882,-0.02768 -0.147914,-0.05114 -0.240122,-0.07115 -0.566336,-0.213148 -0.752369,-0.328702 -0.0047,-0.0028 -0.01178,-0.0047 -0.01823,-0.0037 -0.0065,9.35e-4 -0.01328,0.0047 -0.02188,0.0094 -0.0172,0.0084 -0.04002,0.02188 -0.07302,0.04563 -0.06601,0.0474 -0.171344,0.131757 -0.337836,0.266619 -0.226789,0.183686 -0.422667,0.342988 -0.438272,0.356096 -9.35e-4,8.7e-4 -4.11e-4,5.43e-4 -0.0037,0 -0.0028,-5.42e-4 -0.01028,-0.0028 -0.01823,-0.0075 -0.01589,-0.0097 -0.04095,-0.02973 -0.07854,-0.06395 -0.07527,-0.06835 -0.201376,-0.193747 -0.418189,-0.410886 l -0.498531,-0.498532 0.220964,-0.270265 c 0.124362,-0.152 0.28458,-0.34986 0.356096,-0.438272 l 0.1333,-0.164351 -0.03833,-0.06938 c -0.01945,-0.03506 -0.05096,-0.09303 -0.07124,-0.129654 -0.06741,-0.121258 -0.179881,-0.398507 -0.235578,-0.580716 l -0.05657,-0.186267 -0.07125,-0.01281 h -0.0019 c -0.01945,-0.0037 -0.08574,-0.01159 -0.180788,-0.02188 -0.09504,-0.01028 -0.217411,-0.02244 -0.343316,-0.03469 -0.125838,-0.01225 -0.244216,-0.02515 -0.33418,-0.03469 -0.04497,-0.0047 -0.08359,-0.0075 -0.111394,-0.01094 -0.02786,-0.0028 -0.04553,-0.0065 -0.04927,-0.0075 l -0.03291,-0.0075 v -1.398697 l 0.04927,-0.0093 c 0.01384,-0.0028 0.08574,-0.01113 0.186257,-0.02188 0.100511,-0.01075 0.229959,-0.0245 0.367055,-0.03833 0.137171,-0.01384 0.263431,-0.02842 0.356096,-0.0402 0.04638,-0.0056 0.08443,-0.01028 0.111394,-0.01459 0.01346,-0.0019 0.02515,-0.0037 0.03291,-0.0056 0.0037,-8.41e-4 0.0065,-9.35e-4 0.0093,-0.0019 9.35e-4,-3.92e-4 0.0028,-9.35e-4 0.0037,-0.0019 l 0.0037,-0.0037 c 4.02e-4,-5.23e-4 0.0028,-0.0028 0.0037,-0.0037 6.92e-4,-9.35e-4 9.35e-4,-0.0019 0.0019,-0.0037 0.0019,-0.0037 0.0037,-0.0075 0.0056,-0.01281 0.0037,-0.0101 0.0075,-0.02431 0.01281,-0.0402 0.01075,-0.0317 0.02366,-0.07274 0.03656,-0.116872 0.0546,-0.187352 0.155711,-0.427417 0.262963,-0.626362 0.02122,-0.03946 0.0403,-0.07835 0.05292,-0.107747 0.0065,-0.01468 0.0115,-0.02665 0.01458,-0.03656 0.0019,-0.0047 0.0028,-0.0093 0.0037,-0.01281 3.18e-4,-0.0019 0,-0.0037 0,-0.0056 0,-8.88e-4 6.6e-5,-0.0028 0,-0.0037 -6.5e-5,-4.21e-4 -0.0019,-0.0037 -0.0019,-0.0037 -3.08e-4,-5.89e-4 2.62e-4,-0.0019 0,-0.0019 -5.33e-4,-8.6e-4 -9.35e-4,-0.0028 -0.0019,-0.0037 -0.0019,-0.0019 -0.0047,-0.0037 -0.0075,-0.0075 -0.0056,-0.0065 -0.01262,-0.01739 -0.02188,-0.02917 -0.01851,-0.02365 -0.0446,-0.05675 -0.07667,-0.09679 -0.06423,-0.07994 -0.151391,-0.186753 -0.246526,-0.303139 l -0.341482,-0.41818 0.498531,-0.49854 c 0.217177,-0.217533 0.344905,-0.342596 0.420012,-0.410877 0.03759,-0.03413 0.06087,-0.05423 0.07667,-0.06395 0.0075,-0.0047 0.01505,-0.0065 0.01823,-0.0075 0.0028,-5.14e-4 0.0028,-9.07e-4 0.0037,0 0.0075,0.0065 0.05778,0.04787 0.131477,0.107738 0.07368,0.05984 0.171251,0.138134 0.275754,0.222787 0.104484,0.08462 0.201712,0.164435 0.275744,0.22462 0.07405,0.06021 0.124249,0.101576 0.131477,0.107737 0.0075,0.0065 0.01711,0.01094 0.02917,0.01094 0.01215,3.7e-5 0.02683,-0.0037 0.0475,-0.01094 0.04123,-0.01496 0.106803,-0.04591 0.220964,-0.102258 0.208229,-0.103091 0.435364,-0.190605 0.686631,-0.262963 0.0047,-9.35e-4 0.0093,-0.0028 0.01281,-0.0075 0.0037,-0.0037 0.0065,-0.01075 0.0093,-0.01823 0.0056,-0.01496 0.01075,-0.03703 0.01646,-0.07667 0.01141,-0.07929 0.02553,-0.223927 0.05114,-0.491229 0.01225,-0.128214 0.02515,-0.249957 0.03469,-0.341483 0.0047,-0.04572 0.0095,-0.08312 0.01281,-0.111393 0.0028,-0.02824 0.0047,-0.0474 0.0056,-0.05114 z m 0.350618,0.398096 -0.01094,0.08218 c -0.0056,0.04264 -0.03086,0.27178 -0.05479,0.513136 -0.01197,0.121042 -0.02272,0.232193 -0.03291,0.314097 -0.0047,0.04095 -0.01094,0.07498 -0.01459,0.09861 -0.0019,0.01187 -0.0019,0.02094 -0.0037,0.0274 -6.55e-4,0.0028 -9.35e-4,0.0056 -0.0019,0.0075 l -0.0019,0.0019 c -0.0028,9.35e-4 -0.0084,0.0019 -0.01281,0.0037 -0.0096,0.0028 -0.02225,0.0065 -0.03833,0.01094 -0.03226,0.0084 -0.0748,0.01935 -0.120529,0.02917 -0.350075,0.07573 -0.679964,0.210932 -0.989769,0.405398 -0.05021,0.03151 -0.09656,0.05956 -0.131487,0.08031 -0.01748,0.01038 -0.0316,0.01795 -0.04198,0.02375 -0.0056,0.0028 -0.0099,0.0056 -0.01281,0.0075 -2.71e-4,-1.78e-4 -0.0019,2.15e-4 -0.0019,0 -9.35e-4,-8.33e-4 -0.0019,-0.0028 -0.0037,-0.0037 -0.0056,-0.0037 -0.01393,-0.0093 -0.02375,-0.01646 -0.01963,-0.01505 -0.04824,-0.03693 -0.08218,-0.06395 -0.06788,-0.05395 -0.159133,-0.128073 -0.259307,-0.210005 -0.200413,-0.163865 -0.38236,-0.313434 -0.407231,-0.332358 l -0.04927,-0.03656 -0.248349,0.24835 -0.250182,0.248359 0.07302,0.09125 c 0.03749,0.04703 0.186818,0.231127 0.332357,0.409053 0.07274,0.08892 0.13805,0.171466 0.184434,0.233745 0.02319,0.03113 0.04245,0.05797 0.05479,0.07667 0.0065,0.0093 0.01,0.01664 0.01281,0.02188 9.35e-4,0.0028 0.0028,0.0047 0.0037,0.0056 -6.82e-4,0.0019 -0.0047,0.0065 -0.0093,0.01459 -0.0056,0.0094 -0.01318,0.02244 -0.02188,0.03656 -0.01739,0.02814 -0.03974,0.06349 -0.06395,0.100435 -0.190913,0.292434 -0.358883,0.70663 -0.427314,1.053723 -0.0084,0.04133 -0.0187,0.07901 -0.0274,0.105923 -0.0047,0.01346 -0.0075,0.02403 -0.01094,0.03104 -0.0019,0.0037 -0.0028,0.0065 -0.0037,0.0075 -0.0028,7.4e-5 -0.0075,9.35e-4 -0.01459,0.0019 -0.0075,6.35e-4 -0.01795,6.63e-4 -0.03104,0.0019 -0.02609,0.0019 -0.0618,0.0065 -0.104091,0.01094 -0.08452,0.0084 -0.196131,0.01795 -0.308618,0.02917 -0.224975,0.02253 -0.455943,0.04722 -0.498532,0.05292 l -0.08031,0.01094 v 0.699403 l 0.07302,0.01094 c 0.0187,0.0028 0.08396,0.0101 0.177132,0.0201 0.09312,0.01 0.212503,0.02225 0.336013,0.03469 0.123436,0.01253 0.237934,0.02627 0.3214,0.03656 0.0417,0.0047 0.07629,0.0093 0.100435,0.01281 0.01206,0.0019 0.02085,0.0037 0.02739,0.0056 0.0037,6.35e-4 0.0056,-4.3e-4 0.0075,0 l 0.0019,0.0019 c 9.35e-4,0.0028 0.0019,0.0065 0.0037,0.01094 0.0028,0.0093 0.0065,0.02253 0.01094,0.03833 0.0084,0.0316 0.01954,0.07555 0.02917,0.120519 0.07713,0.355386 0.225975,0.716943 0.414532,1.008002 0.02889,0.0446 0.05404,0.08714 0.07302,0.118696 0.0095,0.0158 0.01851,0.0288 0.02375,0.03833 0.0028,0.0047 0.0037,0.0084 0.0056,0.01094 3.83e-4,8.14e-4 0.0019,9.35e-4 0.0019,0.0019 -7.48e-4,9.35e-4 -0.0019,0.0037 -0.0037,0.0056 -0.0037,0.0047 -0.0098,0.01122 -0.01646,0.0201 -0.01328,0.01767 -0.03272,0.04292 -0.05657,0.07302 -0.04768,0.06031 -0.112039,0.141827 -0.184434,0.230089 -0.144876,0.176637 -0.293378,0.359547 -0.330535,0.407231 l -0.07302,0.09125 0.496708,0.496708 0.09312,-0.07302 c 0.04731,-0.03749 0.223049,-0.179507 0.392626,-0.317753 0.0848,-0.0691 0.164734,-0.134637 0.22461,-0.182611 0.02992,-0.02393 0.05479,-0.04413 0.07302,-0.05844 0.0093,-0.0075 0.01636,-0.01225 0.02188,-0.01646 0.0056,-0.0037 0.01047,-0.0065 0.01094,-0.0075 h 0.0019 c 0.0028,1.97e-4 0.0065,4.02e-4 0.01094,0.0019 0.0093,0.0028 0.02253,0.0084 0.03833,0.01646 0.03151,0.01571 0.07433,0.04133 0.125998,0.07489 0.293238,0.18995 0.655346,0.33893 1.011648,0.416356 0.04497,0.0098 0.08695,0.02066 0.118696,0.02917 0.0159,0.0047 0.0288,0.0075 0.03833,0.01094 0.0047,0.0019 0.0084,0.0028 0.01094,0.0037 5.33e-4,2.25e-4 9.35e-4,-1.96e-4 0.0019,0 6.35e-4,2.9e-4 0.0019,0.0019 0.0019,0.0019 4.39e-4,0.0019 9.35e-4,0.0037 0.0019,0.0075 9.35e-4,0.0065 0.0019,0.01561 0.0037,0.02739 0.0037,0.02366 0.0075,0.05769 0.01281,0.09861 0.0101,0.0819 0.02272,0.193055 0.03469,0.314098 0.02403,0.242216 0.04937,0.471893 0.05479,0.513145 l 0.01094,0.08031 h 0.699411 l 0.01094,-0.07124 c 0.0028,-0.0187 0.01019,-0.08396 0.0201,-0.177132 0.0099,-0.09312 0.02235,-0.214335 0.03469,-0.337836 0.01244,-0.123436 0.0245,-0.236111 0.03469,-0.319576 0.0047,-0.0417 0.01103,-0.07639 0.01459,-0.100436 0.0019,-0.01206 0.0028,-0.02085 0.0037,-0.0274 6.45e-4,-0.0028 9.35e-4,-0.0056 0.0019,-0.0075 v -0.0019 h 0.0019 c 0.0028,-9.35e-4 0.0065,-0.0019 0.01094,-0.0037 0.0094,-0.0028 0.02253,-0.0065 0.03833,-0.01094 0.0316,-0.0084 0.07368,-0.01945 0.118705,-0.02917 0.357181,-0.07742 0.716214,-0.224321 1.009872,-0.414533 0.04469,-0.02889 0.08733,-0.05582 0.118705,-0.07489 0.01571,-0.0095 0.02889,-0.01664 0.03833,-0.02188 0.0047,-0.0028 0.0084,-0.0037 0.01094,-0.0056 v -0.0019 c 2.8e-4,1.68e-4 0.0019,-2.34e-4 0.0019,0 9.35e-4,7.57e-4 0.0019,0.0019 0.0037,0.0037 0.0047,0.0037 0.01131,0.0084 0.0201,0.01459 0.01758,0.01328 0.04282,0.03272 0.07302,0.05657 0.0604,0.04768 0.141575,0.11388 0.23009,0.186266 0.177132,0.144885 0.360322,0.294893 0.40723,0.332358 l 0.09135,0.07124 0.246526,-0.244703 c 0.06629,-0.0662 0.126129,-0.128008 0.16983,-0.173476 0.02188,-0.02272 0.04067,-0.04123 0.05292,-0.05479 0.0065,-0.0065 0.0094,-0.01234 0.01281,-0.01646 0.0019,-0.0019 0.0047,-0.0037 0.0056,-0.0056 v -0.0019 l 0.0019,-0.0019 v -0.0019 -0.0019 -0.0019 -0.0019 l -0.0019,-0.0019 c -8.23e-4,-0.0019 -0.0019,-0.0037 -0.0037,-0.0056 -0.0028,-0.0037 -0.0065,-0.0101 -0.01094,-0.01646 -0.0095,-0.01281 -0.02328,-0.02973 -0.04021,-0.05114 -0.03375,-0.04282 -0.08041,-0.100436 -0.131486,-0.162528 -0.179628,-0.218196 -0.296173,-0.360846 -0.368877,-0.451053 -0.03637,-0.04507 -0.06255,-0.0777 -0.07854,-0.09861 -0.0084,-0.01047 -0.01281,-0.01842 -0.01645,-0.02375 -9.35e-4,-0.0019 -0.0028,-0.0028 -0.0037,-0.0037 v -0.0019 c 2.33e-4,-4.96e-4 -3.28e-4,-9.35e-4 0,-0.0019 9.35e-4,-0.0028 0.0047,-0.0065 0.0075,-0.01094 0.0056,-0.0095 0.01225,-0.02235 0.02188,-0.03833 0.01935,-0.03198 0.04553,-0.07442 0.07489,-0.120519 0.193429,-0.303962 0.337472,-0.652485 0.414533,-1.008002 0.0097,-0.04497 0.02066,-0.08714 0.02917,-0.118695 0.0047,-0.0158 0.0075,-0.02898 0.01094,-0.03834 0.0019,-0.0047 0.0028,-0.0084 0.0037,-0.01094 2.15e-4,-5.05e-4 -1.96e-4,-0.0019 0,-0.0019 9.4e-5,-1.96e-4 0.0019,1.78e-4 0.0019,0 0.0019,-3.74e-4 0.0047,-9.35e-4 0.0075,-0.0019 0.0065,-9.35e-4 0.01533,-0.0037 0.02739,-0.0056 0.02412,-0.0037 0.05872,-0.0075 0.100435,-0.01281 0.08349,-0.01028 0.196141,-0.02225 0.319577,-0.03469 0.123501,-0.01253 0.242851,-0.02655 0.336003,-0.03656 0.09312,-0.01 0.160331,-0.0173 0.178965,-0.0201 l 0.07124,-0.01094 v -0.699402 l -0.08031,-0.01094 c -0.04151,-0.0056 -0.270892,-0.03048 -0.513145,-0.05479 -0.121052,-0.01215 -0.234026,-0.02459 -0.315921,-0.03469 -0.04095,-0.0047 -0.07312,-0.0094 -0.09678,-0.01281 -0.01187,-0.0019 -0.02094,-0.0028 -0.02739,-0.0037 -0.0028,-6.55e-4 -0.0056,-9.35e-4 -0.0075,-0.0019 l -0.0019,-0.0019 c -1.97e-4,-4.21e-4 2.15e-4,-9.35e-4 0,-0.0019 -9.35e-4,-0.0028 -0.0019,-0.0065 -0.0037,-0.01094 -0.0028,-0.0095 -0.0065,-0.02253 -0.01094,-0.03833 -0.0084,-0.0317 -0.01945,-0.07377 -0.02917,-0.118696 -0.07788,-0.359201 -0.224937,-0.715213 -0.418179,-1.013518 -0.03777,-0.05834 -0.06377,-0.101221 -0.07854,-0.131477 -0.0075,-0.01515 -0.01085,-0.02814 -0.01281,-0.03656 -0.0019,-0.0084 -0.0019,-0.01225 -0.0019,-0.01281 9.35e-4,-0.0019 0.01094,-0.01468 0.02553,-0.03282 0.01459,-0.01823 0.03609,-0.04151 0.06021,-0.07125 0.04834,-0.05946 0.111908,-0.138788 0.180788,-0.222787 0.137769,-0.168062 0.280251,-0.343567 0.317753,-0.390793 l 0.07302,-0.09312 -0.244703,-0.244703 c -0.0661,-0.06629 -0.128261,-0.12799 -0.173476,-0.171662 -0.02263,-0.02179 -0.04142,-0.0388 -0.05479,-0.05114 -0.0065,-0.0065 -0.01244,-0.01122 -0.01646,-0.01459 -0.0019,-0.0019 -0.0019,-0.0028 -0.0037,-0.0037 l -0.0019,-0.0019 h -0.0019 -0.0019 l -0.0019,-0.0019 c -3.7e-5,0 -0.0037,0.0019 -0.0037,0.0019 h -0.0019 c -8.69e-4,4.86e-4 -0.0028,9.35e-4 -0.0037,0.0019 -0.0019,9.34e-4 -0.0047,0.0028 -0.0075,0.0056 -0.0065,0.0047 -0.01487,0.01169 -0.02562,0.0201 -0.0215,0.01674 -0.05058,0.03964 -0.08761,0.06938 -0.07414,0.05946 -0.17472,0.141706 -0.28487,0.231922 -0.110113,0.09013 -0.212119,0.172494 -0.286712,0.231912 -0.03731,0.02973 -0.06788,0.0546 -0.08948,0.07125 -0.01085,0.0084 -0.01964,0.01393 -0.02553,0.01823 -0.0019,0.0019 -0.0037,0.0028 -0.0056,0.0037 -4.77e-4,-2.15e-4 -9.35e-4,2.9e-4 -0.0019,0 -0.0028,-0.0019 -0.0075,-0.0047 -0.01281,-0.0075 -0.01047,-0.0056 -0.0244,-0.01337 -0.04198,-0.02375 -0.03516,-0.02076 -0.08312,-0.04881 -0.133309,-0.08031 -0.309797,-0.194467 -0.637862,-0.329656 -0.9879,-0.405398 -0.04572,-0.0099 -0.08845,-0.02057 -0.120519,-0.02917 -0.01608,-0.0047 -0.0288,-0.0075 -0.03833,-0.01094 -0.0047,-0.0019 -0.01019,-0.0028 -0.01281,-0.0037 h -0.0019 v -0.0019 c -4.48e-4,-0.0019 -9.35e-4,-0.0037 -0.0019,-0.0075 -9.34e-4,-0.0065 -0.0019,-0.01533 -0.0037,-0.0274 -0.0037,-0.02412 -0.0095,-0.05872 -0.01459,-0.100435 -0.01019,-0.08349 -0.02235,-0.197964 -0.03469,-0.3214 -0.01234,-0.12351 -0.02468,-0.242851 -0.03469,-0.336013 -0.0099,-0.09312 -0.0172,-0.158507 -0.0201,-0.177132 l -0.01094,-0.07302 h -0.350617 z m 0.01459,0.01823 h 0.670184 l 0.0093,0.05657 c 0.0028,0.01702 0.0101,0.08405 0.0201,0.177141 0.0099,0.09312 0.02235,0.21253 0.03469,0.336004 0.01243,0.123539 0.0245,0.237737 0.03469,0.321399 0.0047,0.04179 0.0093,0.07601 0.01281,0.100436 0.0019,0.01215 0.0037,0.02216 0.0056,0.02917 7.11e-4,0.0037 9.35e-4,0.0065 0.0019,0.0093 l 0.0019,0.0019 v 0.0019 c 1.13e-4,2.05e-4 0.0019,0.0037 0.0019,0.0037 l 0.0019,0.0019 h 0.0019 c 9.35e-4,7.48e-4 0.0037,9.35e-4 0.0056,0.0019 0.0037,0.0019 0.0075,0.0037 0.01281,0.0056 0.0101,0.0037 0.02207,0.0065 0.03834,0.01094 0.03244,0.0084 0.07639,0.01926 0.122351,0.02917 0.348121,0.07536 0.67427,0.210118 0.982477,0.403575 0.0503,0.0316 0.09792,0.05946 0.133309,0.08031 0.01767,0.01047 0.0331,0.01963 0.04385,0.02562 0.0056,0.0028 0.0094,0.0037 0.01281,0.0056 0.0019,8.23e-4 0.0028,0.0028 0.0037,0.0037 h 0.0019 c 3.37e-4,1.03e-4 0.0037,0 0.0037,0 h 0.0019 0.0019 l 0.0019,-0.0019 h 0.0019 c 0.0019,-9.35e-4 0.0056,-0.0028 0.0093,-0.0056 0.0065,-0.0047 0.01468,-0.01178 0.02553,-0.0201 0.02178,-0.01674 0.05217,-0.04151 0.08948,-0.07124 0.0747,-0.05946 0.176543,-0.139874 0.286702,-0.23009 0.110122,-0.09023 0.21082,-0.172466 0.28488,-0.231922 0.03702,-0.02973 0.06629,-0.0546 0.08761,-0.07125 0.01066,-0.0084 0.01973,-0.01393 0.02553,-0.01823 0.0019,-0.0019 0.0037,-0.0028 0.0056,-0.0037 0.0037,0.0028 0.0098,0.0084 0.01646,0.01459 0.01318,0.01215 0.03226,0.02936 0.05479,0.05114 0.04507,0.04357 0.105569,0.103605 0.171653,0.16983 l 0.235569,0.235568 -0.06395,0.08031 c -0.03721,0.04684 -0.180002,0.222759 -0.317744,0.390793 -0.06891,0.08405 -0.134272,0.163304 -0.182611,0.222787 -0.02412,0.02973 -0.04385,0.05479 -0.05844,0.07302 -0.01459,0.01823 -0.02253,0.02842 -0.02553,0.03291 -0.0056,0.0075 -0.0065,0.01505 -0.0037,0.02553 0.0028,0.01047 0.0084,0.0244 0.01646,0.0402 0.01533,0.03151 0.04058,0.0747 0.07854,0.133309 0.192008,0.29637 0.338884,0.650905 0.416356,1.008002 0.0098,0.04525 0.0187,0.08845 0.02739,0.120528 0.0047,0.01608 0.0094,0.02833 0.01281,0.03834 0.0019,0.0047 0.0019,0.0094 0.0037,0.01281 6.92e-4,0.0019 9.35e-4,0.0037 0.0019,0.0056 l 0.0056,0.0056 h 0.0019 c 9.35e-4,4.11e-4 0.0028,0.0019 0.0037,0.0019 0.0019,6.45e-4 0.0056,9.35e-4 0.0093,0.0019 0.0065,0.0019 0.01543,0.0019 0.02739,0.0037 0.02393,0.0037 0.05759,0.0095 0.09861,0.01459 0.08209,0.01019 0.194747,0.02253 0.31592,0.03469 0.242207,0.02431 0.473858,0.0475 0.513146,0.05292 l 0.06573,0.0093 v 0.670193 l -0.05844,0.0094 c -0.01702,0.0028 -0.08405,0.0101 -0.177132,0.0201 -0.09312,0.01 -0.21253,0.02225 -0.336013,0.03469 -0.123539,0.01253 -0.235923,0.02618 -0.319566,0.03656 -0.04179,0.0056 -0.07611,0.0093 -0.100436,0.01281 -0.01216,0.0019 -0.02225,0.0019 -0.02917,0.0037 -0.0037,6.64e-4 -0.0065,9.35e-4 -0.0093,0.0019 -9.35e-4,2.9e-4 -0.0028,0.0019 -0.0037,0.0019 -1.96e-4,1.02e-4 -0.0037,0.0019 -0.0037,0.0019 l -0.0019,0.0019 c -2.34e-4,3.27e-4 -0.0019,0.0028 -0.0019,0.0037 -7.48e-4,9.35e-4 -9.35e-4,0.0019 -0.0019,0.0037 -0.0019,0.0037 -0.0019,0.0075 -0.0037,0.01281 -0.0037,0.0099 -0.0084,0.02235 -0.01281,0.03833 -0.0084,0.03198 -0.01767,0.07527 -0.02739,0.120528 -0.07657,0.353507 -0.218589,0.700375 -0.410877,1.002579 -0.02936,0.04619 -0.05731,0.08836 -0.07667,0.120528 -0.0097,0.01608 -0.01636,0.03039 -0.02188,0.04021 -0.0028,0.0047 -0.0056,0.0075 -0.0075,0.01094 -7.76e-4,0.0019 -9.35e-4,0.0047 -0.0019,0.0056 v 0.0019 l -0.0019,0.0019 c 0,1.49e-4 -5.6e-5,0.0037 0,0.0037 l 0.0037,0.0037 c 9.35e-4,0.0019 0.0019,0.0047 0.0037,0.0075 0.0037,0.0056 0.01019,0.01496 0.01823,0.02553 0.01617,0.02122 0.0403,0.05161 0.07667,0.09679 0.07283,0.09032 0.191063,0.234662 0.370701,0.452877 0.05105,0.06199 0.09788,0.119873 0.131486,0.162527 0.01683,0.02132 0.03085,0.03862 0.0402,0.05114 0.0047,0.0065 0.0065,0.01113 0.0093,0.01459 5.89e-4,8.7e-4 0.0019,9.35e-4 0.0019,0.0019 -5.43e-4,7.02e-4 -9.35e-4,9.07e-4 -0.0019,0.0019 -0.0028,0.0037 -0.0065,0.0097 -0.01281,0.01646 -0.01216,0.01328 -0.03114,0.03207 -0.05292,0.05479 -0.04357,0.04535 -0.103615,0.105578 -0.16983,0.171653 l -0.235578,0.235577 -0.07854,-0.06395 c -0.04656,-0.03721 -0.230127,-0.185669 -0.407231,-0.330535 -0.08854,-0.07246 -0.169568,-0.138479 -0.230089,-0.186266 -0.03029,-0.02394 -0.05526,-0.0432 -0.07302,-0.05657 -0.0084,-0.0065 -0.01674,-0.01281 -0.02188,-0.01646 -0.0028,-0.0019 -0.0037,-0.0028 -0.0056,-0.0037 -8.6e-4,-5.33e-4 -0.0028,-9.35e-4 -0.0037,-0.0019 h -0.0019 l -0.0019,-0.0019 c -1.96e-4,0 -0.0037,0.0019 -0.0037,0.0019 h -0.0019 c -9.35e-4,5.05e-4 -0.0019,9.35e-4 -0.0037,0.0019 -0.0028,0.0019 -0.0075,0.0047 -0.01281,0.0075 -0.0097,0.0056 -0.02253,0.01234 -0.03833,0.02188 -0.0316,0.01917 -0.07386,0.04591 -0.118696,0.07489 -0.291667,0.188932 -0.649287,0.335705 -1.004355,0.41271 -0.04525,0.0098 -0.08677,0.02057 -0.118696,0.02917 -0.01599,0.0047 -0.0302,0.0075 -0.0402,0.01094 -0.0047,0.0019 -0.0075,0.0019 -0.01094,0.0037 -0.0019,7.01e-4 -0.0037,0.0028 -0.0056,0.0037 h -0.0019 l -0.0019,0.0019 c -9.4e-5,1.03e-4 -0.0019,0.0037 -0.0019,0.0037 -4.02e-4,9.35e-4 -0.0019,0.0028 -0.0019,0.0037 -6.36e-4,0.0019 -9.35e-4,0.0056 -0.0019,0.0094 -9.35e-4,0.0075 -0.0037,0.01702 -0.0056,0.02917 -0.0037,0.0244 -0.0075,0.05862 -0.01281,0.100436 -0.01019,0.08368 -0.02225,0.197851 -0.03469,0.321399 -0.01234,0.123474 -0.02478,0.242908 -0.03469,0.336004 -0.0099,0.09312 -0.01739,0.160255 -0.0201,0.177141 l -0.0093,0.05657 h -0.670184 l -0.0093,-0.06573 c -0.0056,-0.03946 -0.02889,-0.270985 -0.05292,-0.513145 -0.01206,-0.121154 -0.02459,-0.23382 -0.03469,-0.31592 -0.0047,-0.04105 -0.0093,-0.07461 -0.01281,-0.09861 -0.0019,-0.01197 -0.0037,-0.02048 -0.0056,-0.02739 -7.1e-4,-0.0037 -9.35e-4,-0.0065 -0.0019,-0.0094 -3.28e-4,-9.35e-4 -9.35e-4,-0.0028 -0.0019,-0.0037 v -0.0019 l -0.0037,-0.0037 h -0.0019 c -9.35e-4,-7.29e-4 -0.0037,-0.0028 -0.0056,-0.0037 -0.0037,-0.0019 -0.0075,-0.0019 -0.01281,-0.0037 -0.01001,-0.0037 -0.02225,-0.0065 -0.03834,-0.01094 -0.03216,-0.0084 -0.07527,-0.01935 -0.120528,-0.02917 -0.354208,-0.07695 -0.714951,-0.225873 -1.006225,-0.414533 -0.05208,-0.03375 -0.09529,-0.05862 -0.127831,-0.07489 -0.01627,-0.0084 -0.02936,-0.01496 -0.0402,-0.01823 -0.0056,-0.0019 -0.01019,-0.0019 -0.01459,-0.0019 -0.0019,-1.68e-4 -0.0056,-3.18e-4 -0.0075,0 h -0.0019 c -5.43e-4,1.87e-4 -0.0028,0.0019 -0.0037,0.0019 -0.0028,0.0019 -0.0056,0.0047 -0.01094,0.0094 -0.0056,0.0047 -0.01459,0.0093 -0.02375,0.01645 -0.01833,0.0144 -0.0431,0.03441 -0.07302,0.05844 -0.05993,0.04796 -0.139817,0.111674 -0.22461,0.180787 -0.16955,0.138218 -0.3457,0.28242 -0.392617,0.319576 l -0.08031,0.06395 -0.237401,-0.237401 -0.237391,-0.239224 0.06208,-0.07854 c 0.03656,-0.04694 0.185696,-0.23065 0.330534,-0.407231 0.07246,-0.08835 0.13847,-0.169633 0.186266,-0.230089 0.02384,-0.0302 0.0432,-0.05526 0.05657,-0.07302 0.0065,-0.0094 0.01094,-0.01664 0.01458,-0.02188 0.0019,-0.0028 0.0047,-0.0056 0.0056,-0.0075 l 0.0019,-0.0019 v -0.0019 c 5.6e-5,-1.68e-4 0,-0.0037 0,-0.0037 v -0.0019 -0.0019 c -5.05e-4,-9.35e-4 -9.35e-4,-0.0037 -0.0019,-0.0056 -0.0019,-0.0028 -0.0047,-0.0075 -0.0075,-0.01281 -0.0056,-0.0099 -0.01234,-0.02244 -0.02188,-0.03833 -0.01917,-0.03179 -0.04591,-0.07396 -0.07489,-0.118696 -0.187258,-0.289068 -0.335985,-0.649287 -0.41271,-1.002579 -0.0097,-0.04525 -0.02057,-0.08854 -0.02917,-0.120528 -0.0047,-0.01599 -0.0075,-0.03029 -0.01094,-0.0402 -0.0019,-0.0047 -0.0037,-0.0075 -0.0056,-0.01094 -7.01e-4,-0.0019 -9.35e-4,-0.0037 -0.0019,-0.0056 l -0.0056,-0.0056 h -0.0019 c -9.35e-4,-3.93e-4 -0.0028,-0.0019 -0.0037,-0.0019 -0.0019,-6.17e-4 -0.0037,-9.35e-4 -0.0075,-0.0019 -0.0075,-9.35e-4 -0.01702,-0.0019 -0.02917,-0.0037 -0.0244,-0.0037 -0.05862,-0.0094 -0.100436,-0.01459 -0.08368,-0.01029 -0.19786,-0.02225 -0.321399,-0.03469 -0.123473,-0.01243 -0.242908,-0.02468 -0.336013,-0.03469 -0.09312,-0.01 -0.160237,-0.01739 -0.177132,-0.0201 l -0.05666,-0.0093 v -0.670194 l 0.06573,-0.0093 c 0.04058,-0.0056 0.271762,-0.02861 0.496708,-0.05114 0.112469,-0.01122 0.224106,-0.02291 0.308609,-0.03104 0.04226,-0.0037 0.07807,-0.0065 0.104092,-0.0093 0.013,-9.35e-4 0.02328,-0.0028 0.03104,-0.0037 0.0075,-6.17e-4 0.01374,0 0.01459,0 3.36e-4,0 0.0037,-0.0019 0.0037,-0.0019 3.55e-4,-1.31e-4 0.0028,-0.0019 0.0037,-0.0019 l 0.0037,-0.0037 c 0.0028,-0.0028 0.0037,-0.0047 0.0056,-0.0093 0.0037,-0.0084 0.0084,-0.02076 0.01281,-0.03469 0.0093,-0.02786 0.01907,-0.06582 0.02739,-0.107737 0.06788,-0.344335 0.23613,-0.758138 0.425491,-1.048206 0.02422,-0.03703 0.04638,-0.07209 0.06395,-0.100445 0.0084,-0.01421 0.01645,-0.02712 0.02188,-0.03656 0.0056,-0.0094 0.0094,-0.01515 0.01094,-0.0201 v -0.0019 c 9e-6,-2.43e-4 4.6e-5,-0.0037 0,-0.0037 -9.4e-5,-6.36e-4 4.39e-4,-0.0028 0,-0.0037 -8.79e-4,-0.0028 -0.0019,-0.0047 -0.0037,-0.0075 -0.0028,-0.0065 -0.0084,-0.01412 -0.01459,-0.02375 -0.01262,-0.01917 -0.03151,-0.04544 -0.05479,-0.07667 -0.04666,-0.06255 -0.111608,-0.14652 -0.184443,-0.235577 -0.145521,-0.177899 -0.295202,-0.362398 -0.332358,-0.409054 l -0.06395,-0.07854 0.476624,-0.476625 0.03656,0.02917 c 0.02263,0.0172 0.206846,0.166689 0.407231,0.330535 0.10022,0.082 0.193204,0.155973 0.26113,0.210005 0.03394,0.02702 0.06059,0.04871 0.08031,0.06395 0.0099,0.0075 0.01805,0.01421 0.02375,0.01823 0.0028,0.0019 0.0056,0.0047 0.0075,0.0056 h 0.0019 l 0.0019,0.0019 h 0.0019 0.0019 0.0019 0.0019 0.0019 c 9.35e-4,-5.24e-4 0.0019,-0.0028 0.0037,-0.0037 0.0037,-0.0019 0.0075,-0.0028 0.01281,-0.0056 0.01066,-0.0056 0.02627,-0.01515 0.04385,-0.02562 0.03506,-0.02085 0.08116,-0.04871 0.131477,-0.08032 0.308188,-0.193457 0.63616,-0.328244 0.984253,-0.403575 0.046,-0.0099 0.08789,-0.02048 0.120528,-0.02917 0.01636,-0.0047 0.03001,-0.0075 0.04021,-0.01094 0.0047,-0.0019 0.0094,-0.0037 0.01281,-0.0056 0.0019,-7.02e-4 0.0037,-9.35e-4 0.0056,-0.0019 h 0.0019 l 0.0019,-0.0019 c 1.02e-4,-1.03e-4 0.0019,-0.0037 0.0019,-0.0037 v -0.0019 l 0.0019,-0.0019 c 6.64e-4,-0.0019 9.35e-4,-0.0056 0.0019,-0.0094 0.0019,-0.0065 0.0037,-0.0172 0.0056,-0.02917 0.0037,-0.02394 0.0075,-0.05759 0.01281,-0.09861 0.0101,-0.08209 0.02272,-0.192933 0.03469,-0.314087 0.02403,-0.24217 0.0475,-0.473998 0.05292,-0.513146 z m -0.292182,2.158495 c -0.325756,0.10914 -0.578743,0.270976 -0.821763,0.524103 -0.297006,0.309376 -0.473249,0.666127 -0.536884,1.08841 -0.03235,0.211427 -0.03282,0.367971 0,0.588019 0.06844,0.457495 0.264926,0.833553 0.602623,1.157785 0.302699,0.290583 0.657543,0.468369 1.071954,0.536885 0.18249,0.0302 0.564448,0.02076 0.72863,-0.01823 0.407586,-0.0968 0.719832,-0.267695 1.000709,-0.547833 0.692615,-0.690754 0.78945,-1.76571 0.230089,-2.574842 -0.103301,-0.149433 -0.360701,-0.403766 -0.511317,-0.505838 -0.518362,-0.351543 -1.178636,-0.444461 -1.764027,-0.248349 z m 0.0056,0.01646 c 0.580118,-0.194354 1.235576,-0.101988 1.749441,0.246526 0.147082,0.09967 0.404978,0.354442 0.505843,0.500364 0.554771,0.802521 0.460394,1.867903 -0.226443,2.552963 -0.278839,0.2781 -0.588345,0.447995 -0.993416,0.544196 -0.158816,0.03777 -0.545131,0.04591 -0.723151,0.01645 h -0.0019 c -0.410458,-0.06815 -0.760992,-0.243433 -1.06098,-0.531397 -0.335293,-0.321895 -0.527422,-0.694513 -0.595321,-1.148623 -0.03263,-0.218897 -0.03394,-0.370561 -0.0019,-0.580707 0.06311,-0.41903 0.238457,-0.774023 0.533228,-1.081024 0.241412,-0.251453 0.491005,-0.41025 0.814461,-0.518624 z m 0.35792,0.308618 c -0.515408,0.08976 -0.950781,0.419469 -1.176018,0.889325 -0.108458,0.226087 -0.14265,0.35921 -0.153402,0.611748 -0.01103,0.273435 0.01309,0.439394 0.09497,0.646455 0.09359,0.235932 0.188716,0.380321 0.361575,0.555144 0.234783,0.237485 0.493595,0.384071 0.798015,0.44923 0.16379,0.03506 0.484357,0.03366 0.65558,0 v 0.0037 l 0.0093,-0.0037 c 0.50487,-0.104092 0.947696,-0.465807 1.150493,-0.942273 0.08424,-0.19815 0.120378,-0.384211 0.120519,-0.615413 2.8e-4,-0.463348 -0.149915,-0.825401 -0.476616,-1.148623 -0.209921,-0.207697 -0.401433,-0.320998 -0.703058,-0.41271 -0.144324,-0.04385 -0.516941,-0.06143 -0.681152,-0.03282 z m 0.0037,0.01823 c 0.158516,-0.02758 0.534547,-0.0093 0.672017,0.03282 0.299838,0.09116 0.487349,0.20103 0.695756,0.40723 0.323998,0.320558 0.47324,0.676234 0.472969,1.135814 -1.41e-4,0.229398 -0.03525,0.411859 -0.118705,0.608102 -0.200451,0.471052 -0.640471,0.830262 -1.139554,0.933157 -0.164781,0.03422 -0.495951,0.03459 -0.657403,0 -0.301241,-0.06451 -0.557921,-0.208277 -0.790722,-0.443751 -0.1717,-0.173654 -0.263066,-0.316977 -0.356087,-0.551489 -0.08116,-0.205209 -0.104148,-0.36698 -0.09312,-0.639152 0.01066,-0.251313 0.04179,-0.379481 0.149737,-0.604446 0.22289,-0.464863 0.655075,-0.789553 1.165078,-0.878367 z"
     color="#000000"
     style="fill:#8da1bd;stroke-width:0.93498;-inkscape-stroke:none"
     id="path956" />
</svg>
