<?xml version="1.0" encoding="UTF-8"?>
<!-- Created with Inkscape (http://www.inkscape.org/) -->
<svg width="34.097" height="26.62" version="1.1" viewBox="0 0 9.0215 7.0432" xmlns="http://www.w3.org/2000/svg">
 <g fill="#8da1bd">
  <path d="m415.91-208.76c-0.055-0.0192-0.1355-0.0582-0.1787-0.0868-0.091-0.0605-0.2021-0.21989-0.2318-0.33382-0.022-0.0857-0.4844-5.7322-0.4844-5.9196 0-0.092 0.01-0.12345 0.048-0.16984 0.026-0.0313 0.072-0.0669 0.1015-0.079 0.04-0.0163 0.8074-0.0207 2.9356-0.017l2.8821 5e-3 0.052 0.0483c0.1177 0.10863 0.1272-0.11067-0.1357 3.1382-0.2374 2.9345-0.2407 2.969-0.2919 3.0833-0.06 0.13293-0.1795 0.2534-0.3138 0.31545l-0.09 0.0418-2.0963 4e-3c-1.9767 4e-3 -2.1021 2e-3 -2.1965-0.0304zm0.8208-0.60975c0.069-0.0359 0.1317-0.1048 0.1577-0.17351 0.016-0.0428-0.013-0.61098-0.1249-2.4538-0.08-1.3189-0.1552-2.4323-0.1666-2.4743-0.06-0.21994-0.3303-0.29487-0.4896-0.13557-0.041 0.0408-0.072 0.0945-0.08 0.13915-0.01 0.0409 0.052 1.13 0.1354 2.4871 0.1386 2.2438 0.1519 2.4194 0.1887 2.485 0.074 0.13098 0.2544 0.19096 0.3794 0.12591zm1.5063-0.0245c0.028-0.0207 0.069-0.0617 0.09-0.0911 0.04-0.0532 0.04-0.0587 0.04-2.5332s-1e-4 -2.48-0.04-2.5332c-0.1426-0.19093-0.4104-0.18497-0.5106 0.0114-0.038 0.0752-0.039 0.10893-0.039 2.5233v2.447l0.041 0.0725c0.059 0.10439 0.1581 0.15825 0.2746 0.14869 0.052-4e-3 0.1157-0.0244 0.1437-0.0453zm1.4547 0.0101c0.1571-0.0883 0.1385 0.0727 0.2894-2.4994 0.1621-2.7613 0.1546-2.5706 0.1055-2.6543-0.063-0.10762-0.132-0.14693-0.2573-0.14693-0.1255 0-0.2151 0.0499-0.2659 0.14815-0.024 0.0467-0.058 0.53496-0.1736 2.486-0.079 1.3353-0.1386 2.4514-0.1325 2.4801 0.01 0.0287 0.029 0.0753 0.051 0.10361 0.098 0.12527 0.2494 0.15786 0.383 0.0828zm-5.2899-6.5991c-0.065-0.0125-0.1564-0.11421-0.1705-0.18896-0.01-0.0507 0.013-0.14272 0.098-0.40016 0.1255-0.38032 0.1692-0.46055 0.2849-0.52233l0.082-0.0438h6.743l0.086 0.0483c0.047 0.0266 0.1055 0.077 0.1291 0.11204 0.053 0.0791 0.2581 0.68804 0.258 0.76708-1e-4 0.0825-0.067 0.18118-0.1446 0.21367-0.057 0.0239-0.5766 0.0275-3.6947 0.0252-1.9955-1e-3 -3.6476-6e-3 -3.6714-0.011zm2.2588-2.0006c0.01-0.20617 0.013-0.24875 0.054-0.33025 0.056-0.11004 0.1478-0.19565 0.27-0.25217 0.086-0.0397 0.1118-0.0407 1.0926-0.0407h1.0047l0.097 0.0514c0.2217 0.11799 0.3022 0.26893 0.315 0.59101l0.01 0.21736h-0.6038v-0.2705h-1.6616v0.2705h-0.5827z" stroke-width=".019321"/>
  <text x="104.34641" y="-37.481964" font-family="Makertone" font-size="23.706px" letter-spacing="0px" stroke-width=".80817" style="line-height:1.25" xml:space="preserve"><tspan x="104.34641" y="-37.481964" fill="#8da1bd" stroke-width=".80817">+</tspan></text>
  <text transform="scale(1.302 .76806)" x="65.488472" y="-55.937019" font-family="Arial" font-size="14.36px" letter-spacing="0px" stroke-opacity=".28094" stroke-width=".48954" style="line-height:1.25" xml:space="preserve"><tspan x="65.488472" y="-55.937019" fill="#8da1bd" font-family="Arial" stroke-opacity=".28094" stroke-width=".48954">I</tspan></text>
  <path d="m83.313-45.509 1.2999-1.0982 3.2641 2.7231 3.2315-3.1062 1.2592 1.2258-4.5902 4.5152z"/>
  <path d="m63.113-41.319c-0.055-0.0192-0.1355-0.0582-0.1787-0.0868-0.091-0.0605-0.2021-0.21989-0.2318-0.33382-0.022-0.0857-0.4844-5.7322-0.4844-5.9196 0-0.092 0.01-0.12345 0.048-0.16984 0.026-0.0313 0.072-0.0669 0.1015-0.079 0.04-0.0163 0.8074-0.0207 2.9356-0.017l2.8821 5e-3 0.052 0.0483c0.1177 0.10863 0.1272-0.11067-0.1357 3.1382-0.2374 2.9345-0.2407 2.969-0.2919 3.0833-0.06 0.13293-0.1795 0.2534-0.3138 0.31545l-0.09 0.0418-2.0963 4e-3c-1.9767 4e-3 -2.1021 2e-3 -2.1965-0.0304zm0.8208-0.60975c0.069-0.0359 0.1317-0.1048 0.1577-0.17351 0.016-0.0428-0.013-0.61098-0.1249-2.4538-0.08-1.3189-0.1552-2.4323-0.1666-2.4743-0.06-0.21994-0.3303-0.29487-0.4896-0.13557-0.041 0.0408-0.072 0.0945-0.08 0.13915-0.01 0.0409 0.052 1.13 0.1354 2.4871 0.1386 2.2438 0.1519 2.4194 0.1887 2.485 0.074 0.13098 0.2544 0.19096 0.3794 0.12591zm1.5063-0.0245c0.028-0.0207 0.069-0.0617 0.09-0.0911 0.04-0.0532 0.04-0.0587 0.04-2.5332s-1e-4 -2.48-0.04-2.5332c-0.1426-0.19093-0.4104-0.18497-0.5106 0.0114-0.038 0.0752-0.039 0.10893-0.039 2.5233v2.447l0.041 0.0725c0.059 0.10439 0.1581 0.15825 0.2746 0.14869 0.052-4e-3 0.1157-0.0244 0.1437-0.0453zm1.4547 0.0101c0.1571-0.0883 0.1385 0.0727 0.2894-2.4994 0.1621-2.7613 0.1546-2.5706 0.1055-2.6543-0.063-0.10762-0.132-0.14693-0.2573-0.14693-0.1255 0-0.2151 0.0499-0.2659 0.14815-0.024 0.0467-0.058 0.53496-0.1736 2.486-0.079 1.3353-0.1386 2.4514-0.1325 2.4801 0.01 0.0287 0.029 0.0753 0.051 0.10361 0.098 0.12527 0.2494 0.15786 0.383 0.0828zm-5.2899-6.5991c-0.065-0.0125-0.1564-0.11421-0.1705-0.18896-0.01-0.0507 0.013-0.14272 0.098-0.40016 0.1255-0.38032 0.1692-0.46055 0.2849-0.52233l0.082-0.0438h6.743l0.086 0.0483c0.047 0.0266 0.1055 0.077 0.1291 0.11204 0.053 0.0791 0.2581 0.68804 0.258 0.76708-1e-4 0.0825-0.067 0.18118-0.1446 0.21367-0.057 0.0239-0.5766 0.0275-3.6947 0.0252-1.9955-1e-3 -3.6476-6e-3 -3.6714-0.011zm2.2588-2.0006c0.01-0.20617 0.013-0.24875 0.054-0.33025 0.056-0.11004 0.1478-0.19565 0.27-0.25217 0.086-0.0397 0.1118-0.0407 1.0926-0.0407h1.0047l0.097 0.0514c0.2217 0.11799 0.3022 0.26893 0.315 0.59101l0.01 0.21736h-0.6038v-0.2705h-1.6616v0.2705h-0.5827z" stroke-width=".019321"/>
 </g>
 <g fill="#132e40">
  <text x="104.14218" y="-18.01935" font-family="Makertone" font-size="23.706px" letter-spacing="0px" stroke-width=".80817" style="line-height:1.25" xml:space="preserve"><tspan x="104.14218" y="-18.01935" fill="#132e40" stroke-width=".80817">+</tspan></text>
  <text transform="scale(1.302 .76806)" x="65.331604" y="-30.597229" font-family="Arial" font-size="14.36px" letter-spacing="0px" stroke-opacity=".28094" stroke-width=".48954" style="line-height:1.25" xml:space="preserve"><tspan x="65.331604" y="-30.597229" fill="#132e40" font-family="Arial" stroke-opacity=".28094" stroke-width=".48954">I</tspan></text>
  <path d="m83.103-26.039 1.2999-1.0982 3.2641 2.7231 3.2315-3.1062 1.2592 1.2258-4.5902 4.5152z"/>
  <path d="m62.903-21.849c-0.055-0.0192-0.1355-0.0582-0.1787-0.0868-0.091-0.0605-0.2021-0.21989-0.2318-0.33382-0.022-0.0857-0.4844-5.7322-0.4844-5.9196 0-0.092 0.01-0.12345 0.048-0.16984 0.026-0.0313 0.072-0.0669 0.1015-0.079 0.04-0.0163 0.8074-0.0207 2.9356-0.017l2.8821 5e-3 0.052 0.0483c0.1177 0.10863 0.1272-0.11067-0.1357 3.1382-0.2374 2.9345-0.2407 2.969-0.2919 3.0833-0.06 0.13293-0.1795 0.2534-0.3138 0.31545l-0.09 0.0418-2.0963 4e-3c-1.9767 4e-3 -2.1021 2e-3 -2.1965-0.0304zm0.8208-0.60975c0.069-0.0359 0.1317-0.1048 0.1577-0.17351 0.016-0.0428-0.013-0.61098-0.1249-2.4538-0.08-1.3189-0.1552-2.4323-0.1666-2.4743-0.06-0.21994-0.3303-0.29487-0.4896-0.13557-0.041 0.0408-0.072 0.0945-0.08 0.13915-0.01 0.0409 0.052 1.13 0.1354 2.4871 0.1386 2.2438 0.1519 2.4194 0.1887 2.485 0.074 0.13098 0.2544 0.19096 0.3794 0.12591zm1.5063-0.0245c0.028-0.0207 0.069-0.0617 0.09-0.0911 0.04-0.0532 0.04-0.0587 0.04-2.5332s-1e-4 -2.48-0.04-2.5332c-0.1426-0.19093-0.4104-0.18497-0.5106 0.0114-0.038 0.0752-0.039 0.10893-0.039 2.5233v2.447l0.041 0.0725c0.059 0.10439 0.1581 0.15825 0.2746 0.14869 0.052-4e-3 0.1157-0.0244 0.1437-0.0453zm1.4547 0.0101c0.1571-0.0883 0.1385 0.0727 0.2894-2.4994 0.1621-2.7613 0.1546-2.5706 0.1055-2.6543-0.063-0.10762-0.132-0.14693-0.2573-0.14693-0.1255 0-0.2151 0.0499-0.2659 0.14815-0.024 0.0467-0.058 0.53496-0.1736 2.486-0.079 1.3353-0.1386 2.4514-0.1325 2.4801 0.01 0.0287 0.029 0.0753 0.051 0.10361 0.098 0.12527 0.2494 0.15786 0.383 0.0828zm-5.2899-6.5991c-0.065-0.0125-0.1564-0.11421-0.1705-0.18896-0.01-0.0507 0.013-0.14272 0.098-0.40016 0.1255-0.38032 0.1692-0.46055 0.2849-0.52233l0.082-0.0438h6.743l0.086 0.0483c0.047 0.0266 0.1055 0.077 0.1291 0.11204 0.053 0.0791 0.2581 0.68804 0.258 0.76708-1e-4 0.0825-0.067 0.18118-0.1446 0.21367-0.057 0.0239-0.5766 0.0275-3.6947 0.0252-1.9955-1e-3 -3.6476-6e-3 -3.6714-0.011zm2.2588-2.0006c0.01-0.20617 0.013-0.24875 0.054-0.33025 0.056-0.11004 0.1478-0.19565 0.27-0.25217 0.086-0.0397 0.1118-0.0407 1.0926-0.0407h1.0047l0.097 0.0514c0.2217 0.11799 0.3022 0.26893 0.315 0.59101l0.01 0.21736h-0.6038v-0.2705h-1.6616v0.2705h-0.5827z" stroke-width=".019321"/>
 </g>
 <g fill="#8da1bd">
  <g transform="translate(-804.09 -375.78)">
   <path d="m817.6 333.16c-1.2198-0.0921-2.4074-0.72248-3.1686-1.682-0.51451-0.6485-0.81977-1.3554-0.94751-2.1943-0.0362-0.2377-0.0414-0.90653-9e-3 -1.1367 0.0852-0.60144 0.2787-1.188 0.54965-1.6662 0.48724-0.85988 1.2489-1.561 2.1096-1.9418 0.35514-0.15716 0.78146-0.28423 1.1092-0.33062 0.14907-0.0211 0.16273-0.0203 0.22687 0.0128 0.0933 0.0482 0.14718 0.13185 0.14718 0.22858 0 0.11645-0.0369 0.16732-0.21996 0.3031-0.73052 0.54191-1.1866 1.3547-1.2905 2.2997-0.0233 0.21204-0.0109 0.60362 0.026 0.82267 0.20551 1.2188 1.1008 2.213 2.2826 2.5349 0.84999 0.23156 1.7798 0.0963 2.5492-0.37074 0.3652-0.22172 0.72332-0.55754 0.94859-0.88951 0.0734-0.10811 0.14513-0.152 0.24866-0.15208 0.0976-7e-5 0.18175 0.0515 0.22882 0.13998 0.0431 0.0812 0.0412 0.1221-0.0199 0.42406-0.26635 1.3139-1.1425 2.4603-2.368 3.0985-0.72588 0.37798-1.602 0.56018-2.4029 0.49972zm0.74409-3.7242c-0.0943-0.0467-0.14774-0.1412-0.14774-0.26149 0-0.30841-0.15517-0.66505-0.39024-0.89697-0.23556-0.23238-0.58549-0.38467-0.88387-0.38467-0.11492 0-0.21873-0.054-0.26615-0.13832-0.10304-0.18334 0.0333-0.38788 0.25861-0.38788 0.39606 0 0.81899-0.23447 1.0592-0.58723 0.13083-0.19218 0.22247-0.47817 0.22247-0.69441 0-0.11457 0.0514-0.20977 0.14038-0.25976 0.1845-0.1037 0.3858 0.0358 0.3858 0.2673 0 0.30078 0.15364 0.65152 0.38812 0.88599 0.23517 0.23517 0.58677 0.38811 0.89222 0.38811 0.12566 0 0.21501 0.0497 0.26129 0.14528 0.0462 0.0955 0.0464 0.13988 6.3e-4 0.23401-0.0442 0.0914-0.14561 0.14691-0.26832 0.14691-0.30076 0-0.65151 0.15364-0.88598 0.38811s-0.38811 0.58522-0.38811 0.88599c0 0.12271-0.0555 0.22407-0.14692 0.26832-0.0935 0.0453-0.14122 0.0454-0.23152 6.1e-4zm2.1047-2.6309c-0.0892-0.0442-0.14766-0.14195-0.14795-0.24761-6.2e-4 -0.18816-0.0876-0.38566-0.23553-0.53383-0.14737-0.14766-0.34044-0.23393-0.52608-0.23509-0.10201-6.1e-4 -0.20711-0.0584-0.25225-0.13874-0.0482-0.0859-0.0486-0.16304-2e-3 -0.24748 0.049-0.0872 0.13803-0.13357 0.2804-0.14601 0.39182-0.0343 0.6988-0.34547 0.72967-0.73979 0.0117-0.14964 0.056-0.23702 0.14554-0.28736 0.0819-0.046 0.15717-0.0472 0.2418-4e-3 0.0893 0.0459 0.128 0.12099 0.14621 0.28376 0.0199 0.17753 0.0688 0.30611 0.16538 0.4346 0.13386 0.17808 0.34156 0.29258 0.56724 0.31274 0.15722 0.0141 0.23458 0.0556 0.28061 0.15066 0.0463 0.0955 0.0464 0.13989 6.3e-4 0.23401-0.0423 0.0873-0.14509 0.14679-0.25441 0.14712-0.18059 6.2e-4 -0.38049 0.09-0.5263 0.23553-0.14766 0.14737-0.23394 0.34044-0.2351 0.52608-6.2e-4 0.10956-0.0601 0.2122-0.14733 0.25442-0.0935 0.0453-0.14122 0.0454-0.23154 6.2e-4z" stroke-width=".01754"/>
   <path d="m776.09 332.72h7.1319c-0.39575-2.4967-0.50708-4.0951-2.783-4.8322h-1.6967c-1.9644 0.7122-2.2621 2.3451-2.6522 4.8322z"/>
   <circle cx="779.57" cy="326.07" r="1.9099"/>
  </g>
  <path d="m-9.7368-43.189h6.5269c-0.39575-2.4967-0.50708-4.6243-2.783-5.3613h-1.6967c-2.0263 0.7741-1.9477 3.1649-2.0472 5.3613z" fill-opacity=".56048" opacity=".76619"/>
  <circle cx="-6.8668" cy="-50.359" r="1.9099" fill-opacity=".56048" opacity=".76619"/>
 </g>
 <path d="m-8.2968-43.239 6.7574 0.0288c-0.22288-2.756-0.3054-4.8442-2.5814-5.5812h-1.6967c-1.9644 0.7122-2.2909 2.9213-2.4794 5.5524z" fill="#8397b3"/>
 <circle cx="-4.9967" cy="-50.609" r="1.9099" fill="#8397b3"/>
 <text x="-4.8112426" y="-40.480042" fill="#bcd4ff" font-family="Makertone" font-size="9.2843px" letter-spacing="0px" stroke-width=".31651" style="line-height:1.25;mix-blend-mode:normal" xml:space="preserve"><tspan x="-4.8112426" y="-40.480042" fill="#bcd4ff" stroke-width=".31651">+</tspan></text>
 <g fill="#8da1bd" fill-opacity=".56048">
  <path d="m15.093 6.5009h4.8068c-0.29145-1.8387-0.37345-3.4056-2.0496-3.9485h-1.2495c-1.4923 0.57011-1.4344 2.3309-1.5077 3.9485z" opacity=".76619"/>
  <circle cx="17.203" cy="1.2109" r="1.4065" opacity=".76619"/>
  <path d="m19.173 6.5109h4.8069c-0.29146-1.8387-0.37346-3.4056-2.0496-3.9485h-1.2495c-1.4923 0.57011-1.4344 2.3309-1.5077 3.9485z" opacity=".76619"/>
  <circle cx="21.283" cy="1.231" r="1.4065" opacity=".76619"/>
 </g>
 <path d="m16.303 7.301 6.2432 0.0266c-0.20592-2.5463-0.28216-4.4756-2.3849-5.1566h-1.5676c-1.8149 0.658-2.1166 2.699-2.2907 5.1299z" fill="#0b1a24"/>
 <circle cx="19.353" cy=".52093" r="1.7645" fill="#0b1a24"/>
 <g fill="#132e40">
  <path d="m11.873-22.689c-1.2198-0.0921-2.4074-0.72248-3.1686-1.682-0.51451-0.6485-0.81977-1.3554-0.94751-2.1943-0.0362-0.2377-0.0414-0.90653-9e-3 -1.1367 0.0852-0.60144 0.2787-1.188 0.54965-1.6662 0.48724-0.85988 1.2489-1.561 2.1096-1.9418 0.35514-0.15716 0.78146-0.28423 1.1092-0.33062 0.14907-0.0211 0.16273-0.0203 0.22687 0.0128 0.0933 0.0482 0.14718 0.13185 0.14718 0.22858 0 0.11645-0.0369 0.16732-0.21996 0.3031-0.73052 0.54191-1.1866 1.3547-1.2905 2.2997-0.0233 0.21204-0.0109 0.60362 0.026 0.82267 0.20551 1.2188 1.1008 2.213 2.2826 2.5349 0.84999 0.23156 1.7798 0.0963 2.5492-0.37074 0.3652-0.22172 0.72332-0.55754 0.94859-0.88951 0.0734-0.10811 0.14513-0.152 0.24866-0.15208 0.0976-7e-5 0.18175 0.0515 0.22882 0.13998 0.0431 0.0812 0.0412 0.1221-0.0199 0.42406-0.26635 1.3139-1.1425 2.4603-2.368 3.0985-0.72588 0.37798-1.602 0.56018-2.4029 0.49972zm0.74409-3.7242c-0.0943-0.0467-0.14774-0.1412-0.14774-0.26149 0-0.30841-0.15517-0.66505-0.39024-0.89697-0.23556-0.23238-0.58549-0.38467-0.88387-0.38467-0.11492 0-0.21873-0.054-0.26615-0.13832-0.10304-0.18334 0.0333-0.38788 0.25861-0.38788 0.39606 0 0.81899-0.23447 1.0592-0.58723 0.13083-0.19218 0.22247-0.47817 0.22247-0.69441 0-0.11457 0.0514-0.20977 0.14038-0.25976 0.1845-0.1037 0.3858 0.0358 0.3858 0.2673 0 0.30078 0.15364 0.65152 0.38812 0.88599 0.23517 0.23517 0.58677 0.38811 0.89222 0.38811 0.12566 0 0.21501 0.0497 0.26129 0.14528 0.0462 0.0955 0.0464 0.13988 6.3e-4 0.23401-0.0442 0.0914-0.14561 0.14691-0.26832 0.14691-0.30076 0-0.65151 0.15364-0.88598 0.38811s-0.38811 0.58522-0.38811 0.88599c0 0.12271-0.0555 0.22407-0.14692 0.26832-0.0935 0.0453-0.14122 0.0454-0.23152 6.1e-4zm2.1047-2.6309c-0.0892-0.0442-0.14766-0.14195-0.14795-0.24761-6.2e-4 -0.18816-0.0876-0.38566-0.23553-0.53383-0.14737-0.14766-0.34044-0.23393-0.52608-0.23509-0.10201-6.1e-4 -0.20711-0.0584-0.25225-0.13874-0.0482-0.0859-0.0486-0.16304-2e-3 -0.24748 0.049-0.0872 0.13803-0.13357 0.2804-0.14601 0.39182-0.0343 0.6988-0.34547 0.72967-0.73979 0.0117-0.14964 0.056-0.23702 0.14554-0.28736 0.0819-0.046 0.15717-0.0472 0.2418-4e-3 0.0893 0.0459 0.128 0.12099 0.14621 0.28376 0.0199 0.17753 0.0688 0.30611 0.16538 0.4346 0.13386 0.17808 0.34156 0.29258 0.56724 0.31274 0.15722 0.0141 0.23458 0.0556 0.28061 0.15066 0.0463 0.0955 0.0464 0.13989 6.3e-4 0.23401-0.0423 0.0873-0.14509 0.14679-0.25441 0.14712-0.18059 6.2e-4 -0.38049 0.09-0.5263 0.23553-0.14766 0.14737-0.23394 0.34044-0.2351 0.52608-6.2e-4 0.10956-0.0601 0.2122-0.14733 0.25442-0.0935 0.0453-0.14122 0.0454-0.23154 6.2e-4z" stroke-width=".01754"/>
  <path d="m-29.647-23.129h7.1319c-0.39575-2.4967-0.50708-4.0951-2.783-4.8322h-1.6967c-1.9644 0.7122-2.2621 2.3451-2.6522 4.8322z"/>
  <circle cx="-26.167" cy="-29.779" r="1.9099"/>
  <path d="m-11.387-23.249h6.5269c-0.39575-2.4967-0.50708-4.6243-2.783-5.3613h-1.6967c-2.0263 0.7741-1.9477 3.1649-2.0472 5.3613z" opacity=".76619"/>
  <circle cx="-8.5167" cy="-30.429" r="1.9099" opacity=".76619"/>
  <path d="m-9.9468-23.309 6.7574 0.0288c-0.22288-2.756-0.3054-4.8442-2.5814-5.5812h-1.6967c-1.9644 0.7122-2.2909 2.9213-2.4794 5.5524z"/>
  <circle cx="-6.6468" cy="-30.679" r="1.9099"/>
 </g>
 <text x="-6.4597125" y="-20.548952" fill="#294675" font-family="Makertone" font-size="9.2843px" letter-spacing="0px" stroke-width=".31651" style="line-height:1.25;mix-blend-mode:normal" xml:space="preserve"><tspan x="-6.4597125" y="-20.548952" fill="#294675" stroke-width=".31651">+</tspan></text>
 <rect x="-31.317" y=".47095" width="7.0168" height="8.2265" ry="1.0346" fill="#0b1a24" stroke="#8da1bd" stroke-width=".5"/>
 <g fill="none" stroke="#8da1bd" stroke-width=".36544px">
  <path d="m-30.217 1.927h4.6208"/>
  <path d="m-30.203 2.7833h1.7367"/>
  <path d="m-30.217 4.12h4.6208"/>
  <path d="m-30.203 4.9763h1.7367"/>
  <path d="m-30.217 6.312h4.6208"/>
  <path d="m-30.203 7.1683h1.7367"/>
 </g>
 <g stroke="#8da1bd">
  <path d="m-13.967 0.54095h6.197c0.48511 0 0.87566 0.39055 0.87566 0.87568v4.5804c0 0.48513-0.39055 0.87568-0.87566 0.87568h-3.2231c-0.37216 0.96644-1.1947 1.8222-2.8383 1.957 0.58372-0.81534 0.72328-1.1638 0.78724-1.957h-0.9228c-0.48513 0-0.87568-0.39055-0.87568-0.87568v-4.5804c0-0.48513 0.39055-0.87568 0.87568-0.87568z" fill="#0b1a24" stroke-width=".5"/>
  <path d="m0.90325 0.25095h1.608c0.092-8e-3 0.13383 0.0278 0.16121 0.0762l0.58046 0.45207h4.109c0.35136 0 0.63421 0.42554 0.63421 0.78265v4.4255c0 0.3571-0.28285 0.64457-0.63421 0.64457h-6.4587c-0.35135 0-0.6342-0.28747-0.6342-0.64457v-5.0919c0-0.3571 0.28285-0.64459 0.6342-0.64459z" fill="#0b1a24" stroke-width=".5"/>
  <path d="m1.2632 5.7209v-4.2904h5.9434v4.3647z" fill="#303b49" stroke-width=".24121px"/>
  <path d="m1.6432 2.2709h6.5098c0.33706 0 0.68535 0.28025 0.60842 0.60842l-0.77478 3.3054c-0.077 0.32818-0.27136 0.60842-0.60843 0.60842h-6.5098c-0.33706 0-0.68534-0.28024-0.60841-0.60842l0.77478-3.3054c0.0769-0.32817 0.27135-0.60842 0.60841-0.60842z" fill="#0b1a24" stroke-width=".5"/>
  <path d="m16.303 7.301c2.0811 9e-3 4.1621 0.0177 6.2432 0.0266 0.01-1.2894-0.13132-2.6253-0.7158-3.7926-0.33189-0.65902-1.0271-1.2475-1.7756-1.3772 0.46019-0.41458 1.0096-0.64663 1.073-1.576 0.0634-0.92941-0.55878-1.663-1.2663-1.7728-0.70755-0.10981-1.295-0.0397-1.8068 0.54632-0.51182 0.586-0.49172 1.2927-0.29303 1.8025 0.19869 0.50984 0.54496 0.78111 1.0504 0.97625-0.92448 0.1952-1.5555 1.0253-1.9093 1.8523-0.4417 1.044-0.57314 2.1904-0.59967 3.3147z" fill="none" stroke-linecap="round" stroke-linejoin="bevel" stroke-width=".442"/>
 </g>
 <path d="m18.193 1.461c0.17602 0.3065 0.8244 0.68722 0.78527 0.68544 6e-3 0.12645-0.0466 0.0733-0.0466 0.0733s-0.59227 0.2928-0.77862 0.49244c-0.18631 0.19965 2.7018 0.0599 2.7018 0.0599s-0.57231-0.49244-0.97159-0.55233c-0.39929-0.0599-0.2795-0.17967-0.2795-0.17967l0.22625 0.11313 0.74533-0.74533z" fill="#0b1a24"/>
 <path d="m34.933 15.031 0.0808 0.83512 1.0236 0.2424 0.45794 1.1583-0.53875 0.9967 0.67344 0.5388 0.86201-0.5657 1.0506 0.431 0.10775 1.1044 1.1314 0.054 0.0808-1.0775 1.293-0.5118 0.59263 0.5656 0.86201-0.6734-0.61957-0.9698 0.45794-1.0236 1.0775-0.1885v-1.0506l-1.0236-0.0808-0.45795-1.3469 0.5657-0.72733-0.72732-0.59264-0.7812 0.59264-1.2122-0.51182-0.10775-0.9967h-0.99671l-0.2155 1.0236-1.0506 0.48488-0.91588-0.67345-0.70039 0.72732 0.53876 0.80814-0.37713 1.2661z" fill="#0b1a24"/>
 <path d="m38.543 19.93c-0.0037-0.02141-0.0287-0.25278-0.05376-0.514-0.02496-0.26123-0.05086-0.49733-0.0575-0.52468-0.01103-0.04572-0.02543-0.05376-0.18348-0.10058-0.24109-0.07143-0.56634-0.21393-0.7535-0.33019-0.02263-0.01412-0.1075 0.04684-0.44042 0.31652-0.22678 0.18369-0.4243 0.34402-0.43894 0.3563-0.02291 0.01917-0.09672-0.04796-0.53039-0.48227l-0.50378-0.5046 0.22602-0.27634c0.12435-0.15199 0.28452-0.34866 0.35601-0.43705l0.13002-0.1607-0.03553-0.06386c-0.01945-0.03506-0.05208-0.09368-0.07237-0.13029-0.06816-0.12256-0.18001-0.39824-0.23594-0.5812l-0.05544-0.18132-0.06648-0.01243c-0.03646-0.0065-0.27238-0.03216-0.52411-0.05675s-0.47518-0.04834-0.49655-0.05292l-0.0388-0.0084v-1.4141l0.0561-0.0097c0.03095-0.0056 0.2805-0.03216 0.55472-0.05984 0.27421-0.02768 0.50402-0.05675 0.51068-0.0647 0.0065-0.0084 0.03319-0.08639 0.0589-0.17445 0.05488-0.18818 0.15589-0.42924 0.26345-0.62876 0.04226-0.07845 0.0734-0.15074 0.0691-0.16054-0.0037-0.0096-0.16348-0.20825-0.35371-0.44098l-0.3459-0.42315 0.50374-0.5046c0.43438-0.43511 0.5074-0.50149 0.53034-0.4821 0.01468 0.01243 0.1976 0.16099 0.40658 0.3303 0.20899 0.16929 0.3928 0.31873 0.40845 0.33208 0.02496 0.02141 0.05965 0.0084 0.2879-0.10418 0.20874-0.10334 0.43581-0.19012 0.68751-0.26261 0.02655-0.0084 0.03301-0.05236 0.08424-0.58693 0.02459-0.25648 0.04834-0.48382 0.05292-0.5052l0.0084-0.0388h1.4149l0.0084 0.0388c0.0037 0.02141 0.0287 0.24871 0.05404 0.5052 0.02515 0.25648 0.05096 0.49236 0.05722 0.52418 0.01103 0.05638 0.01571 0.05928 0.19245 0.11358 0.26221 0.0806 0.55734 0.20998 0.74535 0.32678 0.03029 0.01879 0.06208-0.0056 0.67067-0.50439l0.23316-0.19124 0.5046 0.50391c0.43431 0.43374 0.50148 0.50762 0.48227 0.53053-0.01243 0.01468-0.17262 0.21216-0.3563 0.43894-0.26971 0.33299-0.33062 0.41774-0.31652 0.44042 0.1115 0.1796 0.25158 0.49873 0.32662 0.74441 0.05086 0.1663 0.05928 0.18186 0.10446 0.19268 0.02711 0.0065 0.26303 0.03235 0.52425 0.05732 0.26122 0.02496 0.49245 0.04918 0.51382 0.05376l0.0388 0.0084v1.4149l-0.0388 0.0084c-0.02141 0.0037-0.27142 0.0316-0.55564 0.06021-0.28425 0.02861-0.52196 0.05815-0.52825 0.06545-0.0065 0.0065-0.02889 0.07555-0.0503 0.15162-0.05227 0.18581-0.19428 0.52869-0.27912 0.67387-0.03796 0.06498-0.06535 0.12643-0.06096 0.13666 0.0037 0.0096 0.16375 0.20894 0.35398 0.44168l0.3459 0.42314-0.50374 0.50461c-0.43438 0.43511-0.5074 0.50149-0.53035 0.4821-0.01468-0.01243-0.1976-0.16099-0.40658-0.3303-0.20899-0.16929-0.39318-0.31908-0.40932-0.33287-0.02609-0.02235-0.04488-0.01655-0.17272 0.05292-0.18814 0.10239-0.41162 0.19516-0.6356 0.26383l-0.18135 0.05573-0.01393 0.08387c-0.0084 0.04619-0.03525 0.29756-0.06133 0.55878l-0.0474 0.47496-1.4223 0.0075zm1.0678-0.44061c0.0056-0.03562 0.03011-0.26684 0.05488-0.51382 0.02478-0.24698 0.05012-0.45443 0.05638-0.46099 0.0065-0.0065 0.08527-0.02796 0.17553-0.0475 0.35613-0.07723 0.71365-0.2242 1.0063-0.41377 0.08957-0.05787 0.16773-0.10543 0.1739-0.10543 0.0056 0 0.15612 0.11856 0.33323 0.26338 0.17711 0.14488 0.36027 0.29393 0.40702 0.33126l0.08499 0.06788 0.2408-0.24035c0.1325-0.13223 0.24082-0.24495 0.24082-0.25056 0-0.0056-0.08359-0.11164-0.18568-0.23576-0.35928-0.43641-0.47064-0.57459-0.47064-0.58396 0-0.0056 0.04806-0.08499 0.10681-0.17722 0.19286-0.30306 0.33553-0.65092 0.41236-1.0055 0.01945-0.09023 0.04086-0.16906 0.0475-0.17517 0.0065-0.0056 0.21402-0.03151 0.46099-0.05647 0.24698-0.02496 0.4782-0.04974 0.51384-0.05516l0.0648-0.0096v-0.6857l-0.0734-0.0096c-0.04039-0.0056-0.27158-0.02973-0.51381-0.05404-0.24224-0.02431-0.4458-0.04955-0.45236-0.05591-0.0065-0.0065-0.02796-0.08564-0.0475-0.17583-0.0777-0.35816-0.22416-0.71362-0.41679-1.011-0.07573-0.11689-0.10363-0.17415-0.09247-0.1899 0.0084-0.01243 0.12864-0.16006 0.26641-0.32808 0.13775-0.16804 0.28097-0.34401 0.3183-0.39103l0.06788-0.08555-0.24036-0.2408c-0.13222-0.1325-0.24434-0.24075-0.24922-0.24067-0.0056 8.4e-5 -0.18908 0.14776-0.40935 0.32816-0.22027 0.1804-0.40558 0.32801-0.41178 0.32801-0.0056 0-0.09367-0.0517-0.19424-0.11482-0.30899-0.19396-0.63659-0.32811-0.98566-0.40365-0.09172-0.01992-0.17187-0.04142-0.17817-0.04806-0.0065-0.0065-0.0316-0.21407-0.05638-0.46105-0.02468-0.24698-0.04946-0.4782-0.05488-0.51382l-0.0096-0.06479h-0.6857l-0.0096 0.0734c-0.0056 0.0403-0.02954 0.27157-0.05357 0.51376-0.02403 0.2422-0.04918 0.4458-0.05582 0.45243-0.0065 0.0065-0.08723 0.02833-0.17888 0.04806-0.3491 0.07555-0.6767 0.20969-0.98566 0.40365-0.10059 0.06311-0.18756 0.11482-0.19315 0.11482-0.0056 0-0.17416-0.13403-0.37456-0.29794-0.20039-0.16386-0.38379-0.31271-0.40752-0.33077l-0.0431-0.03291-0.48669 0.4867 0.06797 0.08508c0.03731 0.04684 0.187 0.23068 0.33254 0.4086 0.14553 0.17793 0.26099 0.33294 0.25657 0.34446-0.0037 0.01103-0.0475 0.08153-0.09589 0.15552-0.19014 0.29125-0.35796 0.70512-0.42612 1.0508-0.01646 0.08321-0.03843 0.15113-0.04909 0.15115-0.02954 2.8e-5 -0.87301 0.08452-0.9562 0.09575l-0.0734 0.0096v0.6857l0.06479 0.0096c0.03562 0.0056 0.26685 0.03029 0.51383 0.05516 0.24698 0.02496 0.45443 0.0504 0.46099 0.05647 0.0065 0.0056 0.02805 0.08499 0.0475 0.17518 0.07695 0.35432 0.22576 0.71622 0.41367 1.0063 0.05788 0.08938 0.10542 0.16811 0.10542 0.17476 0 0.0065-0.11855 0.15657-0.26339 0.33317-0.14486 0.17661-0.29356 0.35981-0.33043 0.40714l-0.06704 0.08611 0.48602 0.48602 0.08564-0.06797c0.04712-0.03731 0.22443-0.18102 0.39399-0.31925 0.16957-0.13821 0.3183-0.25735 0.3305-0.26478 0.01393-0.0084 0.08321 0.02599 0.187 0.09331 0.29224 0.1893 0.65317 0.33786 1.0085 0.41506 0.09023 0.01963 0.16955 0.04105 0.17624 0.04768 0.0065 0.0065 0.03179 0.21017 0.05582 0.45237 0.02403 0.24219 0.04825 0.47339 0.05357 0.51376l0.0096 0.0734h0.6857zm-0.66314-2.0329c-0.41281-0.06825-0.76579-0.245-1.0673-0.53447-0.3365-0.32305-0.53077-0.69696-0.59892-1.1527-0.03272-0.21947-0.03319-0.374-9.35e-4 -0.58479 0.06339-0.42064 0.23875-0.7763 0.53464-1.0845 0.24222-0.25228 0.49392-0.41262 0.81853-0.52137 0.58275-0.19523 1.2405-0.10266 1.7566 0.24737 0.14885 0.10087 0.40628 0.35596 0.50836 0.50364 0.55707 0.80584 0.46215 1.8748-0.22757 2.5627-0.27986 0.27912-0.59122 0.44956-0.99753 0.54606-0.1615 0.03843-0.54514 0.04797-0.7254 0.01814zm0.63545-0.41681c0.50195-0.10349 0.94265-0.46495 1.1442-0.93872 0.08387-0.1972 0.11993-0.38031 0.12007-0.61061 2.72e-4 -0.46149-0.14916-0.8216-0.47451-1.1435-0.20916-0.20695-0.39909-0.3181-0.69982-0.40954-0.14089-0.04282-0.51574-0.06105-0.67711-0.03301-0.51271 0.08929-0.94611 0.41674-1.1702 0.8841-0.10819 0.22553-0.14066 0.35618-0.15138 0.60811-0.01103 0.2728 0.01244 0.4362 0.09396 0.64234 0.09331 0.23522 0.18664 0.37928 0.35892 0.55353 0.23379 0.23648 0.49165 0.38124 0.79448 0.44606 0.16376 0.03506 0.49433 0.03562 0.66136 9.34e-4z" color="#000000" fill="#8da1bd" stroke-width=".017271" style="-inkscape-stroke:none"/>
 <path d="m38.543 10.982-0.01094 0.04563c-0.0019 0.0065-0.0037 0.02459-0.0075 0.05292-0.0028 0.02833-0.0065 0.06563-0.01094 0.11139-0.0096 0.09163-0.02244 0.21323-0.03469 0.34149-0.02562 0.26727-0.03983 0.411-0.05114 0.48941-0.0056 0.03918-0.0099 0.06255-0.01459 0.07489-0.0019 0.0065-0.0056 0.0093-0.0075 0.01094-0.0019 0.0019-0.0028 0.0028-0.0056 0.0037-0.25214 0.07265-0.47921 0.15937-0.68845 0.26296-0.11409 0.05629-0.1797 0.08798-0.21914 0.10226-0.01973 0.0075-0.03347 0.01103-0.04198 0.01094-0.0084-2.8e-5 -0.01122-0.0028-0.01645-0.0075-0.0084-0.0075-0.05928-0.0475-0.1333-0.10774-0.07405-0.06021-0.17125-0.13997-0.27575-0.22462-0.10448-0.08461-0.20206-0.16476-0.27574-0.22461-0.07368-0.05984-0.1247-0.10017-0.13148-0.10591-0.0047-0.0037-0.01141-0.0047-0.01823-0.0037-0.0065 9.35e-4 -0.01477 0.0037-0.02375 0.0093-0.01786 0.01094-0.04245 0.03132-0.08031 0.06573-0.07573 0.06882-0.20281 0.19331-0.42001 0.41088l-0.50767 0.51132 0.35062 0.42914c0.09511 0.11636 0.18237 0.22322 0.24653 0.30314 0.03207 0.03992 0.05825 0.07321 0.07667 0.09679 0.0093 0.01178 0.01692 0.02253 0.02188 0.02917 0.0028 0.0037 0.0037 0.0056 0.0056 0.0075v0.0038c-4.12e-4 0.0028-4.12e-4 0.0065-0.0019 0.01094-0.0028 0.0093-0.0084 0.02029-0.01459 0.03469-0.01234 0.0288-0.03011 0.06685-0.05114 0.10591-0.10786 0.20009-0.20966 0.441-0.26479 0.63002-0.01281 0.04394-0.0259 0.08546-0.03656 0.11687-0.0056 0.01571-0.0093 0.0287-0.01281 0.03833-0.0019 0.0047-0.0037 0.0099-0.0056 0.01281-2.62e-4 5.7e-4 2.24e-4 9.35e-4 0 0.0019l-0.0019 0.0019c-0.0019 5.23e-4 -0.0037 9.35e-4 -0.0075 0.0019-0.0075 0.0019-0.01776 0.0037-0.03104 0.0056-0.02665 0.0047-0.06517 0.0084-0.11139 0.01458-0.09247 0.01169-0.21722 0.02637-0.35427 0.04021-0.13712 0.01384-0.26831 0.02758-0.36888 0.03833-0.10057 0.01075-0.17096 0.01879-0.18809 0.02188l-0.06208 0.01094v1.4281l0.04563 0.0093c0.0065 0.0019 0.02319 0.0037 0.05114 0.0075 0.02796 0.0028 0.06638 0.0084 0.11139 0.01281 0.09004 0.0095 0.2083 0.02057 0.33418 0.03282 0.12584 0.01225 0.24835 0.0244 0.34332 0.03469 0.09497 0.01028 0.16381 0.01889 0.18079 0.02188l0.06031 0.01281 0.05479 0.17531c0.05619 0.18372 0.16669 0.45868 0.23558 0.58254 0.02029 0.03665 0.05357 0.09643 0.07302 0.13148l0.03291 0.05844-0.12601 0.15523c-0.07143 0.08835-0.23175 0.28629-0.3561 0.43827l-0.23191 0.28122 0.50949 0.51132c0.21685 0.21717 0.34418 0.34192 0.42001 0.41088 0.03796 0.0345 0.06246 0.0547 0.08031 0.06573 0.0093 0.0056 0.01683 0.0084 0.02375 0.0094 0.0065 9.35e-4 0.01356 2.71e-4 0.01823-0.0037 0.01365-0.0115 0.21149-0.17241 0.43827-0.3561 0.16643-0.13482 0.27253-0.21786 0.33784-0.26479 0.03263-0.02347 0.05395-0.03815 0.06938-0.04563 0.0075-0.0037 0.0144-0.0047 0.01823-0.0056 0.0037-6.26e-4 0.0047-3.83e-4 0.0056 0 0.18829 0.11696 0.51396 0.25881 0.75602 0.33053 0.07901 0.02338 0.12109 0.03843 0.14427 0.05114 0.02319 0.01272 0.02749 0.02169 0.03291 0.04385 9.35e-4 0.0056 0.0056 0.02665 0.0093 0.05666s0.0075 0.06938 0.01281 0.11687c0.01038 0.09504 0.02403 0.22004 0.03656 0.35062 0.01253 0.13064 0.02487 0.25376 0.03469 0.34696 0.0047 0.04656 0.0075 0.08443 0.01094 0.11322 0.0028 0.0288 0.0065 0.04666 0.0075 0.05292v0.0019l0.01094 0.04385 0.71767-0.0037 0.7195-0.0037 0.0475-0.48393c0.013-0.13059 0.02552-0.25852 0.03656-0.35974 0.01103-0.10123 0.0216-0.17525 0.02552-0.19722l0.01281-0.07854 0.17531-0.05479c0.22452-0.06881 0.44858-0.16207 0.63732-0.26479 0.06386-0.03469 0.10183-0.05339 0.12417-0.06031 0.01122-0.0037 0.01823-0.0028 0.02375-0.0019 0.0056 9.35e-4 0.0084 0.0037 0.01459 0.0093 0.0084 0.0075 0.05909 0.0474 0.13331 0.10774 0.07414 0.06031 0.17307 0.13997 0.27757 0.22462 0.10448 0.08461 0.20207 0.16475 0.27574 0.22461 0.07368 0.05984 0.12288 0.10017 0.12966 0.10592 0.0047 0.0037 0.01141 0.0047 0.01823 0.0037 0.0065-9.34e-4 0.01477-0.0037 0.02375-0.0093 0.01786-0.01094 0.04245-0.03132 0.08031-0.06573 0.07573-0.06882 0.20281-0.19514 0.42001-0.41271l0.5095-0.50949-0.35062-0.42914c-0.09511-0.11636-0.18231-0.22487-0.24654-0.30497-0.03207-0.04002-0.05825-0.07312-0.07667-0.09678-0.0093-0.01178-0.01683-0.02066-0.02188-0.02739-0.0028-0.0037-0.0037-0.0056-0.0056-0.0075l-0.0019-0.0019v-0.0019c2.99e-4 -0.0019 6.45e-4 -0.0056 0.0019-0.0093 0.0028-0.0075 0.0075-0.01889 0.01281-0.03104 0.01085-0.0244 0.02683-0.05544 0.04563-0.08761 0.08574-0.14666 0.22677-0.48859 0.27939-0.67566 0.01066-0.03796 0.02206-0.07489 0.03104-0.10227 0.0047-0.01365 0.0075-0.02459 0.01094-0.03282 0.0019-0.0037 0.0047-0.0084 0.0056-0.01094v-0.0019h0.0019c0.0019-5.14e-4 0.0037-9.35e-4 0.0075-0.0019 0.0075-0.0019 0.01917-0.0037 0.03291-0.0056 0.02749-0.0047 0.06535-0.0084 0.11322-0.01459 0.09565-0.01187 0.22681-0.02768 0.36888-0.04198 0.14214-0.01431 0.27545-0.0273 0.37619-0.03833 0.05039-0.0056 0.09322-0.01103 0.12418-0.01459 0.03095-0.0037 0.04843-0.0065 0.05479-0.0075h0.0019l0.04563-0.0093v-1.43l-0.04563-0.0093c-0.0065-0.0019-0.02599-0.0037-0.05479-0.0075-0.0288-0.0037-0.06666-0.0075-0.11322-0.01281-0.09312-0.0097-0.21634-0.02225-0.34697-0.03469-0.13057-0.01253-0.25564-0.02431-0.35062-0.03469-0.0475-0.0056-0.08695-0.01084-0.11687-0.01459-0.02992-0.0037-0.05133-0.0056-0.05657-0.0075-0.02179-0.0056-0.03048-0.0084-0.04385-0.03282-0.01328-0.02459-0.02758-0.07031-0.05292-0.15339-0.07527-0.24656-0.2165-0.56615-0.3287-0.74689-3.93e-4 -6.26e-4 -6.27e-4 -0.0019 0-0.0056 6.26e-4 -0.0037 0.0019-0.01056 0.0056-0.01823 0.0075-0.01543 0.02216-0.03862 0.04563-0.07125 0.04694-0.06526 0.12995-0.16954 0.26479-0.336 0.09181-0.11338 0.17832-0.21811 0.24287-0.29766 0.06451-0.07957 0.10753-0.13389 0.11323-0.14061 0.0037-0.0047 0.0065-0.01141 0.0056-0.01823-9.35e-4 -0.0065-0.0056-0.01477-0.01094-0.02375-0.01103-0.01795-0.03123-0.04245-0.06573-0.08031-0.069-0.07583-0.19371-0.20312-0.41089-0.42001l-0.51131-0.50949-0.23922 0.19722c-0.30429 0.24939-0.46403 0.37973-0.55149 0.44557-0.04376 0.03291-0.06863 0.04983-0.08396 0.05657-0.0075 0.0037-0.01328 0.0037-0.01645 0.0037-0.0028-9.4e-5 -0.0037-0.0019-0.0075-0.0037-0.18902-0.11744-0.48577-0.24606-0.74871-0.32688-0.08835-0.02711-0.13245-0.04133-0.15522-0.05479-0.01141-0.0065-0.01795-0.01253-0.02188-0.0201-0.0037-0.0075-0.0065-0.01889-0.0093-0.03291-0.0028-0.01412-0.0097-0.08219-0.0201-0.17713-0.01038-0.09497-0.02394-0.21692-0.03656-0.34514-0.01272-0.12827-0.02478-0.24989-0.03469-0.34149-0.0047-0.04581-0.0095-0.08303-0.01281-0.11139-0.0028-0.02833-0.0065-0.04666-0.0075-0.05292l-0.0093-0.04563h-0.71402zm0.01281 0.01645h1.4006l0.0075 0.03291c8.51e-4 0.0056 0.0037 0.02375 0.0075 0.05114 0.0028 0.02833 0.0056 0.06564 0.01094 0.11139 0.0099 0.09153 0.02384 0.21327 0.03656 0.34148 0.01262 0.12827 0.02431 0.25009 0.03469 0.34514s0.01842 0.16129 0.02188 0.17896c0.0028 0.01421 0.0056 0.02599 0.01094 0.03656 0.0056 0.01047 0.01412 0.01954 0.02739 0.0274 0.02655 0.01571 0.07227 0.02945 0.1607 0.05657 0.26147 0.08031 0.55625 0.20888 0.74324 0.32505 0.0047 0.0028 0.0097 0.0056 0.01646 0.0056 0.0065 2.15e-4 0.01468-0.0019 0.02375-0.0056 0.01814-0.0084 0.04357-0.02524 0.08761-0.05844 0.08817-0.06638 0.2472-0.19618 0.5515-0.44557l0.22827-0.18627 0.49853 0.49853c0.21714 0.21686 0.34248 0.34294 0.41088 0.41819 0.03422 0.03759 0.05414 0.06264 0.06395 0.07854 0.0047 0.0084 0.0065 0.01318 0.0075 0.01646 5.42e-4 0.0028 8.69e-4 0.0047 0 0.0056-0.0065 0.0084-0.04862 0.06105-0.11323 0.14061-0.06451 0.07957-0.15103 0.18427-0.24287 0.29766-0.13488 0.16653-0.21736 0.27184-0.2648 0.33784-0.02375 0.033-0.03908 0.05582-0.0475 0.07302-0.0037 0.0084-0.0065 0.01543-0.0075 0.02188-9.35e-4 0.0065-9.35e-4 0.01318 0.0019 0.01823 0.1108 0.17846 0.25028 0.49843 0.32506 0.74323 0.02543 0.08321 0.0417 0.12772 0.05666 0.15522 0.01487 0.02749 0.03141 0.03637 0.05479 0.04198 0.0084 0.0019 0.02833 0.0056 0.05844 0.0093s0.06937 0.0075 0.11687 0.01281c0.09508 0.01038 0.21997 0.02403 0.35062 0.03656 0.13059 0.01253 0.25388 0.02496 0.34696 0.03469 0.04656 0.0047 0.08452 0.0075 0.11323 0.01094 0.0287 0.0037 0.04918 0.0065 0.05292 0.0075l0.03104 0.0075v1.4006l-0.03104 0.0075c-0.0047 7.67e-4 -0.02394 0.0037-0.05479 0.0075-0.03086 0.0037-0.07386 0.0075-0.12418 0.01281-0.10068 0.01103-0.2341 0.0259-0.37618 0.0402-0.14218 0.01431-0.27304 0.02824-0.36888 0.04021-0.04796 0.0056-0.08733 0.01215-0.11505 0.01646-0.01393 0.0019-0.02496 0.0037-0.03291 0.0056-0.0037 8.14e-4 -0.0065 9.35e-4 -0.0093 0.0019-9.35e-4 3.65e-4 -0.0028 9.35e-4 -0.0037 0.0019h-0.0019l-0.0056 0.0056c-7.29e-4 9.35e-4 -9.35e-4 0.0019-0.0019 0.0037-0.0019 0.0028-0.0019 0.0065-0.0037 0.01094-0.0037 0.0084-0.0084 0.02085-0.01281 0.03469-0.0093 0.02777-0.02029 0.06414-0.03104 0.10227-0.05189 0.18455-0.19361 0.52833-0.27758 0.67202-0.01907 0.03272-0.03628 0.06433-0.0475 0.08948-0.0056 0.01262-0.0101 0.02412-0.01281 0.03291-9.35e-4 0.0047-9.35e-4 0.0075-0.0019 0.01094-2.53e-4 0.0019-0.0019 0.0037-0.0019 0.0056l0.0019 0.0019c8.4e-5 4.21e-4 -1.31e-4 0.0037 0 0.0037 1.21e-4 2.99e-4 9.35e-4 0.0028 0.0019 0.0037l0.0019 0.0019c0.0019 0.0019 0.0028 0.0056 0.0056 0.0093 0.0056 0.0065 0.01262 0.01552 0.02188 0.02739 0.01851 0.02375 0.0446 0.05675 0.07667 0.09678 0.06423 0.08013 0.15322 0.18859 0.24835 0.30497l0.33966 0.41818-0.49853 0.49853c-0.21718 0.21754-0.34307 0.3426-0.41818 0.41089-0.03759 0.03413-0.06274 0.05423-0.07854 0.06395-0.0075 0.0047-0.01328 0.0065-0.01646 0.0075-0.0028 5.14e-4 -0.0047 9.07e-4 -0.0056 0-0.0075-0.0065-0.05591-0.04787-0.12965-0.10775-0.07368-0.05984-0.17125-0.13812-0.27574-0.22279-0.10449-0.08462-0.20339-0.16428-0.27757-0.22461-0.07414-0.06031-0.12402-0.10318-0.13149-0.10957-0.0075-0.0056-0.0144-0.01084-0.02375-0.01281-0.0094-0.0019-0.0201-2.62e-4 -0.03291 0.0037-0.02553 0.0075-0.06199 0.0273-0.126 0.06208-0.18754 0.10206-0.41024 0.19446-0.63367 0.26296l-0.18809 0.05657-0.01458 0.08948c-0.0047 0.02422-0.01272 0.09774-0.02375 0.19905-0.01103 0.10131-0.02347 0.22912-0.03656 0.35975l-0.0475 0.46749-0.70306 0.0037-0.70489 0.0037-0.0075-0.02917c-7.58e-4 -0.0047-0.0019-0.02422-0.0056-0.05292-0.0028-0.0288-0.0075-0.06666-0.01281-0.11322-0.0098-0.09312-0.02216-0.21638-0.03469-0.34697-0.01243-0.13065-0.02609-0.25546-0.03656-0.35062-0.0056-0.04759-0.0093-0.08854-0.01281-0.1187-0.0037-0.03011-0.0075-0.04825-0.0093-0.05657-0.0056-0.02356-0.01393-0.04217-0.0402-0.05657s-0.06882-0.02768-0.14791-0.05114c-0.24012-0.07115-0.56634-0.21315-0.75237-0.3287-0.0047-0.0028-0.01178-0.0047-0.01823-0.0037-0.0065 9.35e-4 -0.01328 0.0047-0.02188 0.0094-0.0172 0.0084-0.04002 0.02188-0.07302 0.04563-0.06601 0.0474-0.17134 0.13176-0.33784 0.26662-0.22679 0.18369-0.42267 0.34299-0.43827 0.3561-9.35e-4 8.7e-4 -4.11e-4 5.43e-4 -0.0037 0-0.0028-5.42e-4 -0.01028-0.0028-0.01823-0.0075-0.01589-0.0097-0.04095-0.02973-0.07854-0.06395-0.07527-0.06835-0.20138-0.19375-0.41819-0.41089l-0.49853-0.49853 0.22096-0.27026c0.12436-0.152 0.28458-0.34986 0.3561-0.43827l0.1333-0.16435-0.03833-0.06938c-0.01945-0.03506-0.05096-0.09303-0.07124-0.12965-0.06741-0.12126-0.17988-0.39851-0.23558-0.58072l-0.05657-0.18627-0.07125-0.01281h-0.0019c-0.01945-0.0037-0.08574-0.01159-0.18079-0.02188-0.09504-0.01028-0.21741-0.02244-0.34332-0.03469-0.12584-0.01225-0.24422-0.02515-0.33418-0.03469-0.04497-0.0047-0.08359-0.0075-0.11139-0.01094-0.02786-0.0028-0.04553-0.0065-0.04927-0.0075l-0.03291-0.0075v-1.3987l0.04927-0.0093c0.01384-0.0028 0.08574-0.01113 0.18626-0.02188 0.10051-0.01075 0.22996-0.0245 0.36706-0.03833 0.13717-0.01384 0.26343-0.02842 0.3561-0.0402 0.04638-0.0056 0.08443-0.01028 0.11139-0.01459 0.01346-0.0019 0.02515-0.0037 0.03291-0.0056 0.0037-8.41e-4 0.0065-9.35e-4 0.0093-0.0019 9.35e-4 -3.92e-4 0.0028-9.35e-4 0.0037-0.0019l0.0037-0.0037c4.02e-4 -5.23e-4 0.0028-0.0028 0.0037-0.0037 6.92e-4 -9.35e-4 9.35e-4 -0.0019 0.0019-0.0037 0.0019-0.0037 0.0037-0.0075 0.0056-0.01281 0.0037-0.0101 0.0075-0.02431 0.01281-0.0402 0.01075-0.0317 0.02366-0.07274 0.03656-0.11687 0.0546-0.18735 0.15571-0.42742 0.26296-0.62636 0.02122-0.03946 0.0403-0.07835 0.05292-0.10775 0.0065-0.01468 0.0115-0.02665 0.01458-0.03656 0.0019-0.0047 0.0028-0.0093 0.0037-0.01281 3.18e-4 -0.0019 0-0.0037 0-0.0056 0-8.88e-4 6.6e-5 -0.0028 0-0.0037-6.5e-5 -4.21e-4 -0.0019-0.0037-0.0019-0.0037-3.08e-4 -5.89e-4 2.62e-4 -0.0019 0-0.0019-5.33e-4 -8.6e-4 -9.35e-4 -0.0028-0.0019-0.0037-0.0019-0.0019-0.0047-0.0037-0.0075-0.0075-0.0056-0.0065-0.01262-0.01739-0.02188-0.02917-0.01851-0.02365-0.0446-0.05675-0.07667-0.09679-0.06423-0.07994-0.15139-0.18675-0.24653-0.30314l-0.34148-0.41818 0.49853-0.49854c0.21718-0.21753 0.3449-0.3426 0.42001-0.41088 0.03759-0.03413 0.06087-0.05423 0.07667-0.06395 0.0075-0.0047 0.01505-0.0065 0.01823-0.0075 0.0028-5.14e-4 0.0028-9.07e-4 0.0037 0 0.0075 0.0065 0.05778 0.04787 0.13148 0.10774 0.07368 0.05984 0.17125 0.13813 0.27575 0.22279 0.10448 0.08462 0.20171 0.16444 0.27574 0.22462 0.07405 0.06021 0.12425 0.10158 0.13148 0.10774 0.0075 0.0065 0.01711 0.01094 0.02917 0.01094 0.01215 3.7e-5 0.02683-0.0037 0.0475-0.01094 0.04123-0.01496 0.1068-0.04591 0.22096-0.10226 0.20823-0.10309 0.43536-0.1906 0.68663-0.26296 0.0047-9.35e-4 0.0093-0.0028 0.01281-0.0075 0.0037-0.0037 0.0065-0.01075 0.0093-0.01823 0.0056-0.01496 0.01075-0.03703 0.01646-0.07667 0.01141-0.07929 0.02553-0.22393 0.05114-0.49123 0.01225-0.12821 0.02515-0.24996 0.03469-0.34148 0.0047-0.04572 0.0095-0.08312 0.01281-0.11139 0.0028-0.02824 0.0047-0.0474 0.0056-0.05114zm0.35062 0.3981-0.01094 0.08218c-0.0056 0.04264-0.03086 0.27178-0.05479 0.51314-0.01197 0.12104-0.02272 0.23219-0.03291 0.3141-0.0047 0.04095-0.01094 0.07498-0.01459 0.09861-0.0019 0.01187-0.0019 0.02094-0.0037 0.0274-6.55e-4 0.0028-9.35e-4 0.0056-0.0019 0.0075l-0.0019 0.0019c-0.0028 9.35e-4 -0.0084 0.0019-0.01281 0.0037-0.0096 0.0028-0.02225 0.0065-0.03833 0.01094-0.03226 0.0084-0.0748 0.01935-0.12053 0.02917-0.35008 0.07573-0.67996 0.21093-0.98977 0.4054-0.05021 0.03151-0.09656 0.05956-0.13149 0.08031-0.01748 0.01038-0.0316 0.01795-0.04198 0.02375-0.0056 0.0028-0.0099 0.0056-0.01281 0.0075-2.71e-4 -1.78e-4 -0.0019 2.15e-4 -0.0019 0-9.35e-4 -8.33e-4 -0.0019-0.0028-0.0037-0.0037-0.0056-0.0037-0.01393-0.0093-0.02375-0.01646-0.01963-0.01505-0.04824-0.03693-0.08218-0.06395-0.06788-0.05395-0.15913-0.12807-0.25931-0.21-0.20041-0.16386-0.38236-0.31343-0.40723-0.33236l-0.04927-0.03656-0.24835 0.24835-0.25018 0.24836 0.07302 0.09125c0.03749 0.04703 0.18682 0.23113 0.33236 0.40905 0.07274 0.08892 0.13805 0.17147 0.18443 0.23374 0.02319 0.03113 0.04245 0.05797 0.05479 0.07667 0.0065 0.0093 0.01 0.01664 0.01281 0.02188 9.35e-4 0.0028 0.0028 0.0047 0.0037 0.0056-6.82e-4 0.0019-0.0047 0.0065-0.0093 0.01459-0.0056 0.0094-0.01318 0.02244-0.02188 0.03656-0.01739 0.02814-0.03974 0.06349-0.06395 0.10044-0.19091 0.29243-0.35888 0.70663-0.42731 1.0537-0.0084 0.04133-0.0187 0.07901-0.0274 0.10592-0.0047 0.01346-0.0075 0.02403-0.01094 0.03104-0.0019 0.0037-0.0028 0.0065-0.0037 0.0075-0.0028 7.4e-5 -0.0075 9.35e-4 -0.01459 0.0019-0.0075 6.35e-4 -0.01795 6.63e-4 -0.03104 0.0019-0.02609 0.0019-0.0618 0.0065-0.10409 0.01094-0.08452 0.0084-0.19613 0.01795-0.30862 0.02917-0.22498 0.02253-0.45594 0.04722-0.49853 0.05292l-0.08031 0.01094v0.6994l0.07302 0.01094c0.0187 0.0028 0.08396 0.0101 0.17713 0.0201 0.09312 0.01 0.2125 0.02225 0.33601 0.03469 0.12344 0.01253 0.23793 0.02627 0.3214 0.03656 0.0417 0.0047 0.07629 0.0093 0.10044 0.01281 0.01206 0.0019 0.02085 0.0037 0.02739 0.0056 0.0037 6.35e-4 0.0056-4.3e-4 0.0075 0l0.0019 0.0019c9.35e-4 0.0028 0.0019 0.0065 0.0037 0.01094 0.0028 0.0093 0.0065 0.02253 0.01094 0.03833 0.0084 0.0316 0.01954 0.07555 0.02917 0.12052 0.07713 0.35539 0.22598 0.71694 0.41453 1.008 0.02889 0.0446 0.05404 0.08714 0.07302 0.1187 0.0095 0.0158 0.01851 0.0288 0.02375 0.03833 0.0028 0.0047 0.0037 0.0084 0.0056 0.01094 3.83e-4 8.14e-4 0.0019 9.35e-4 0.0019 0.0019-7.48e-4 9.35e-4 -0.0019 0.0037-0.0037 0.0056-0.0037 0.0047-0.0098 0.01122-0.01646 0.0201-0.01328 0.01767-0.03272 0.04292-0.05657 0.07302-0.04768 0.06031-0.11204 0.14183-0.18443 0.23009-0.14488 0.17664-0.29338 0.35955-0.33054 0.40723l-0.07302 0.09125 0.49671 0.49671 0.09312-0.07302c0.04731-0.03749 0.22305-0.17951 0.39263-0.31775 0.0848-0.0691 0.16473-0.13464 0.22461-0.18261 0.02992-0.02393 0.05479-0.04413 0.07302-0.05844 0.0093-0.0075 0.01636-0.01225 0.02188-0.01646 0.0056-0.0037 0.01047-0.0065 0.01094-0.0075h0.0019c0.0028 1.97e-4 0.0065 4.02e-4 0.01094 0.0019 0.0093 0.0028 0.02253 0.0084 0.03833 0.01646 0.03151 0.01571 0.07433 0.04133 0.126 0.07489 0.29324 0.18995 0.65535 0.33893 1.0116 0.41636 0.04497 0.0098 0.08695 0.02066 0.1187 0.02917 0.0159 0.0047 0.0288 0.0075 0.03833 0.01094 0.0047 0.0019 0.0084 0.0028 0.01094 0.0037 5.33e-4 2.25e-4 9.35e-4 -1.96e-4 0.0019 0 6.35e-4 2.9e-4 0.0019 0.0019 0.0019 0.0019 4.39e-4 0.0019 9.35e-4 0.0037 0.0019 0.0075 9.35e-4 0.0065 0.0019 0.01561 0.0037 0.02739 0.0037 0.02366 0.0075 0.05769 0.01281 0.09861 0.0101 0.0819 0.02272 0.19306 0.03469 0.3141 0.02403 0.24222 0.04937 0.47189 0.05479 0.51314l0.01094 0.08031h0.69941l0.01094-0.07124c0.0028-0.0187 0.01019-0.08396 0.0201-0.17713 0.0099-0.09312 0.02235-0.21434 0.03469-0.33784 0.01244-0.12344 0.0245-0.23611 0.03469-0.31958 0.0047-0.0417 0.01103-0.07639 0.01459-0.10044 0.0019-0.01206 0.0028-0.02085 0.0037-0.0274 6.45e-4 -0.0028 9.35e-4 -0.0056 0.0019-0.0075v-0.0019h0.0019c0.0028-9.35e-4 0.0065-0.0019 0.01094-0.0037 0.0094-0.0028 0.02253-0.0065 0.03833-0.01094 0.0316-0.0084 0.07368-0.01945 0.1187-0.02917 0.35718-0.07742 0.71621-0.22432 1.0099-0.41453 0.04469-0.02889 0.08733-0.05582 0.1187-0.07489 0.01571-0.0095 0.02889-0.01664 0.03833-0.02188 0.0047-0.0028 0.0084-0.0037 0.01094-0.0056v-0.0019c2.8e-4 1.68e-4 0.0019-2.34e-4 0.0019 0 9.35e-4 7.57e-4 0.0019 0.0019 0.0037 0.0037 0.0047 0.0037 0.01131 0.0084 0.0201 0.01459 0.01758 0.01328 0.04282 0.03272 0.07302 0.05657 0.0604 0.04768 0.14158 0.11388 0.23009 0.18627 0.17713 0.14488 0.36032 0.29489 0.40723 0.33236l0.09135 0.07124 0.24653-0.2447c0.06629-0.0662 0.12613-0.12801 0.16983-0.17348 0.02188-0.02272 0.04067-0.04123 0.05292-0.05479 0.0065-0.0065 0.0094-0.01234 0.01281-0.01646 0.0019-0.0019 0.0047-0.0037 0.0056-0.0056v-0.0019l0.0019-0.0019v-0.0076l-0.0019-0.0019c-8.23e-4 -0.0019-0.0019-0.0037-0.0037-0.0056-0.0028-0.0037-0.0065-0.0101-0.01094-0.01646-0.0095-0.01281-0.02328-0.02973-0.04021-0.05114-0.03375-0.04282-0.08041-0.10044-0.13149-0.16253-0.17963-0.2182-0.29617-0.36085-0.36888-0.45105-0.03637-0.04507-0.06255-0.0777-0.07854-0.09861-0.0084-0.01047-0.01281-0.01842-0.01645-0.02375-9.35e-4 -0.0019-0.0028-0.0028-0.0037-0.0037v-0.0019c2.33e-4 -4.96e-4 -3.28e-4 -9.35e-4 0-0.0019 9.35e-4 -0.0028 0.0047-0.0065 0.0075-0.01094 0.0056-0.0095 0.01225-0.02235 0.02188-0.03833 0.01935-0.03198 0.04553-0.07442 0.07489-0.12052 0.19343-0.30396 0.33747-0.65248 0.41453-1.008 0.0097-0.04497 0.02066-0.08714 0.02917-0.1187 0.0047-0.0158 0.0075-0.02898 0.01094-0.03834 0.0019-0.0047 0.0028-0.0084 0.0037-0.01094 2.15e-4 -5.05e-4 -1.96e-4 -0.0019 0-0.0019 9.4e-5 -1.96e-4 0.0019 1.78e-4 0.0019 0 0.0019-3.74e-4 0.0047-9.35e-4 0.0075-0.0019 0.0065-9.35e-4 0.01533-0.0037 0.02739-0.0056 0.02412-0.0037 0.05872-0.0075 0.10044-0.01281 0.08349-0.01028 0.19614-0.02225 0.31958-0.03469 0.1235-0.01253 0.24285-0.02655 0.336-0.03656 0.09312-0.01 0.16033-0.0173 0.17896-0.0201l0.07124-0.01094v-0.6994l-0.08031-0.01094c-0.04151-0.0056-0.27089-0.03048-0.51314-0.05479-0.12105-0.01215-0.23403-0.02459-0.31592-0.03469-0.04095-0.0047-0.07312-0.0094-0.09678-0.01281-0.01187-0.0019-0.02094-0.0028-0.02739-0.0037-0.0028-6.55e-4 -0.0056-9.35e-4 -0.0075-0.0019l-0.0019-0.0019c-1.97e-4 -4.21e-4 2.15e-4 -9.35e-4 0-0.0019-9.35e-4 -0.0028-0.0019-0.0065-0.0037-0.01094-0.0028-0.0095-0.0065-0.02253-0.01094-0.03833-0.0084-0.0317-0.01945-0.07377-0.02917-0.1187-0.07788-0.3592-0.22494-0.71521-0.41818-1.0135-0.03777-0.05834-0.06377-0.10122-0.07854-0.13148-0.0075-0.01515-0.01085-0.02814-0.01281-0.03656-0.0019-0.0084-0.0019-0.01225-0.0019-0.01281 9.35e-4 -0.0019 0.01094-0.01468 0.02553-0.03282 0.01459-0.01823 0.03609-0.04151 0.06021-0.07125 0.04834-0.05946 0.11191-0.13879 0.18079-0.22279 0.13777-0.16806 0.28025-0.34357 0.31775-0.39079l0.07302-0.09312-0.2447-0.2447c-0.0661-0.06629-0.12826-0.12799-0.17348-0.17166-0.02263-0.02179-0.04142-0.0388-0.05479-0.05114-0.0065-0.0065-0.01244-0.01122-0.01646-0.01459-0.0019-0.0019-0.0019-0.0028-0.0037-0.0037l-0.0019-0.0019h-0.0038l-0.0019-0.0019c-3.7e-5 0-0.0037 0.0019-0.0037 0.0019h-0.0019c-8.69e-4 4.86e-4 -0.0028 9.35e-4 -0.0037 0.0019-0.0019 9.34e-4 -0.0047 0.0028-0.0075 0.0056-0.0065 0.0047-0.01487 0.01169-0.02562 0.0201-0.0215 0.01674-0.05058 0.03964-0.08761 0.06938-0.07414 0.05946-0.17472 0.14171-0.28487 0.23192-0.11011 0.09013-0.21212 0.17249-0.28671 0.23191-0.03731 0.02973-0.06788 0.0546-0.08948 0.07125-0.01085 0.0084-0.01964 0.01393-0.02553 0.01823-0.0019 0.0019-0.0037 0.0028-0.0056 0.0037-4.77e-4 -2.15e-4 -9.35e-4 2.9e-4 -0.0019 0-0.0028-0.0019-0.0075-0.0047-0.01281-0.0075-0.01047-0.0056-0.0244-0.01337-0.04198-0.02375-0.03516-0.02076-0.08312-0.04881-0.13331-0.08031-0.3098-0.19447-0.63786-0.32966-0.9879-0.4054-0.04572-0.0099-0.08845-0.02057-0.12052-0.02917-0.01608-0.0047-0.0288-0.0075-0.03833-0.01094-0.0047-0.0019-0.01019-0.0028-0.01281-0.0037h-0.0019v-0.0019c-4.48e-4 -0.0019-9.35e-4 -0.0037-0.0019-0.0075-9.34e-4 -0.0065-0.0019-0.01533-0.0037-0.0274-0.0037-0.02412-0.0095-0.05872-0.01459-0.10044-0.01019-0.08349-0.02235-0.19796-0.03469-0.3214-0.01234-0.12351-0.02468-0.24285-0.03469-0.33601-0.0099-0.09312-0.0172-0.15851-0.0201-0.17713l-0.01094-0.07302h-0.35062zm0.01459 0.01823h0.67018l0.0093 0.05657c0.0028 0.01702 0.0101 0.08405 0.0201 0.17714 0.0099 0.09312 0.02235 0.21253 0.03469 0.336 0.01243 0.12354 0.0245 0.23774 0.03469 0.3214 0.0047 0.04179 0.0093 0.07601 0.01281 0.10044 0.0019 0.01215 0.0037 0.02216 0.0056 0.02917 7.11e-4 0.0037 9.35e-4 0.0065 0.0019 0.0093l0.0019 0.0019v0.0019c1.13e-4 2.05e-4 0.0019 0.0037 0.0019 0.0037l0.0019 0.0019h0.0019c9.35e-4 7.48e-4 0.0037 9.35e-4 0.0056 0.0019 0.0037 0.0019 0.0075 0.0037 0.01281 0.0056 0.0101 0.0037 0.02207 0.0065 0.03834 0.01094 0.03244 0.0084 0.07639 0.01926 0.12235 0.02917 0.34812 0.07536 0.67427 0.21012 0.98248 0.40358 0.0503 0.0316 0.09792 0.05946 0.13331 0.08031 0.01767 0.01047 0.0331 0.01963 0.04385 0.02562 0.0056 0.0028 0.0094 0.0037 0.01281 0.0056 0.0019 8.23e-4 0.0028 0.0028 0.0037 0.0037h0.0019c3.37e-4 1.03e-4 0.0037 0 0.0037 0h0.0038l0.0019-0.0019h0.0019c0.0019-9.35e-4 0.0056-0.0028 0.0093-0.0056 0.0065-0.0047 0.01468-0.01178 0.02553-0.0201 0.02178-0.01674 0.05217-0.04151 0.08948-0.07124 0.0747-0.05946 0.17654-0.13987 0.2867-0.23009 0.11012-0.09023 0.21082-0.17247 0.28488-0.23192 0.03702-0.02973 0.06629-0.0546 0.08761-0.07125 0.01066-0.0084 0.01973-0.01393 0.02553-0.01823 0.0019-0.0019 0.0037-0.0028 0.0056-0.0037 0.0037 0.0028 0.0098 0.0084 0.01646 0.01459 0.01318 0.01215 0.03226 0.02936 0.05479 0.05114 0.04507 0.04357 0.10557 0.1036 0.17165 0.16983l0.23557 0.23557-0.06395 0.08031c-0.03721 0.04684-0.18 0.22276-0.31774 0.39079-0.06891 0.08405-0.13427 0.1633-0.18261 0.22279-0.02412 0.02973-0.04385 0.05479-0.05844 0.07302s-0.02253 0.02842-0.02553 0.03291c-0.0056 0.0075-0.0065 0.01505-0.0037 0.02553 0.0028 0.01047 0.0084 0.0244 0.01646 0.0402 0.01533 0.03151 0.04058 0.0747 0.07854 0.13331 0.19201 0.29637 0.33888 0.6509 0.41636 1.008 0.0098 0.04525 0.0187 0.08845 0.02739 0.12053 0.0047 0.01608 0.0094 0.02833 0.01281 0.03834 0.0019 0.0047 0.0019 0.0094 0.0037 0.01281 6.92e-4 0.0019 9.35e-4 0.0037 0.0019 0.0056l0.0056 0.0056h0.0019c9.35e-4 4.11e-4 0.0028 0.0019 0.0037 0.0019 0.0019 6.45e-4 0.0056 9.35e-4 0.0093 0.0019 0.0065 0.0019 0.01543 0.0019 0.02739 0.0037 0.02393 0.0037 0.05759 0.0095 0.09861 0.01459 0.08209 0.01019 0.19475 0.02253 0.31592 0.03469 0.24221 0.02431 0.47386 0.0475 0.51315 0.05292l0.06573 0.0093v0.67019l-0.05844 0.0094c-0.01702 0.0028-0.08405 0.0101-0.17713 0.0201-0.09312 0.01-0.21253 0.02225-0.33601 0.03469-0.12354 0.01253-0.23592 0.02618-0.31957 0.03656-0.04179 0.0056-0.07611 0.0093-0.10044 0.01281-0.01216 0.0019-0.02225 0.0019-0.02917 0.0037-0.0037 6.64e-4 -0.0065 9.35e-4 -0.0093 0.0019-9.35e-4 2.9e-4 -0.0028 0.0019-0.0037 0.0019-1.96e-4 1.02e-4 -0.0037 0.0019-0.0037 0.0019l-0.0019 0.0019c-2.34e-4 3.27e-4 -0.0019 0.0028-0.0019 0.0037-7.48e-4 9.35e-4 -9.35e-4 0.0019-0.0019 0.0037-0.0019 0.0037-0.0019 0.0075-0.0037 0.01281-0.0037 0.0099-0.0084 0.02235-0.01281 0.03833-0.0084 0.03198-0.01767 0.07527-0.02739 0.12053-0.07657 0.35351-0.21859 0.70038-0.41088 1.0026-0.02936 0.04619-0.05731 0.08836-0.07667 0.12053-0.0097 0.01608-0.01636 0.03039-0.02188 0.04021-0.0028 0.0047-0.0056 0.0075-0.0075 0.01094-7.76e-4 0.0019-9.35e-4 0.0047-0.0019 0.0056v0.0019l-0.0019 0.0019c0 1.49e-4 -5.6e-5 0.0037 0 0.0037l0.0037 0.0037c9.35e-4 0.0019 0.0019 0.0047 0.0037 0.0075 0.0037 0.0056 0.01019 0.01496 0.01823 0.02553 0.01617 0.02122 0.0403 0.05161 0.07667 0.09679 0.07283 0.09032 0.19106 0.23466 0.3707 0.45288 0.05105 0.06199 0.09788 0.11987 0.13149 0.16253 0.01683 0.02132 0.03085 0.03862 0.0402 0.05114 0.0047 0.0065 0.0065 0.01113 0.0093 0.01459 5.89e-4 8.7e-4 0.0019 9.35e-4 0.0019 0.0019-5.43e-4 7.02e-4 -9.35e-4 9.07e-4 -0.0019 0.0019-0.0028 0.0037-0.0065 0.0097-0.01281 0.01646-0.01216 0.01328-0.03114 0.03207-0.05292 0.05479-0.04357 0.04535-0.10362 0.10558-0.16983 0.17165l-0.23558 0.23558-0.07854-0.06395c-0.04656-0.03721-0.23013-0.18567-0.40723-0.33054-0.08854-0.07246-0.16957-0.13848-0.23009-0.18627-0.03029-0.02394-0.05526-0.0432-0.07302-0.05657-0.0084-0.0065-0.01674-0.01281-0.02188-0.01646-0.0028-0.0019-0.0037-0.0028-0.0056-0.0037-8.6e-4 -5.33e-4 -0.0028-9.35e-4 -0.0037-0.0019h-0.0019l-0.0019-0.0019c-1.96e-4 0-0.0037 0.0019-0.0037 0.0019h-0.0019c-9.35e-4 5.05e-4 -0.0019 9.35e-4 -0.0037 0.0019-0.0028 0.0019-0.0075 0.0047-0.01281 0.0075-0.0097 0.0056-0.02253 0.01234-0.03833 0.02188-0.0316 0.01917-0.07386 0.04591-0.1187 0.07489-0.29167 0.18893-0.64929 0.3357-1.0044 0.41271-0.04525 0.0098-0.08677 0.02057-0.1187 0.02917-0.01599 0.0047-0.0302 0.0075-0.0402 0.01094-0.0047 0.0019-0.0075 0.0019-0.01094 0.0037-0.0019 7.01e-4 -0.0037 0.0028-0.0056 0.0037h-0.0019l-0.0019 0.0019c-9.4e-5 1.03e-4 -0.0019 0.0037-0.0019 0.0037-4.02e-4 9.35e-4 -0.0019 0.0028-0.0019 0.0037-6.36e-4 0.0019-9.35e-4 0.0056-0.0019 0.0094-9.35e-4 0.0075-0.0037 0.01702-0.0056 0.02917-0.0037 0.0244-0.0075 0.05862-0.01281 0.10044-0.01019 0.08368-0.02225 0.19785-0.03469 0.3214-0.01234 0.12347-0.02478 0.24291-0.03469 0.336-0.0099 0.09312-0.01739 0.16026-0.0201 0.17714l-0.0093 0.05657h-0.67018l-0.0093-0.06573c-0.0056-0.03946-0.02889-0.27098-0.05292-0.51314-0.01206-0.12115-0.02459-0.23382-0.03469-0.31592-0.0047-0.04105-0.0093-0.07461-0.01281-0.09861-0.0019-0.01197-0.0037-0.02048-0.0056-0.02739-7.1e-4 -0.0037-9.35e-4 -0.0065-0.0019-0.0094-3.28e-4 -9.35e-4 -9.35e-4 -0.0028-0.0019-0.0037v-0.0019l-0.0037-0.0037h-0.0019c-9.35e-4 -7.29e-4 -0.0037-0.0028-0.0056-0.0037-0.0037-0.0019-0.0075-0.0019-0.01281-0.0037-0.01001-0.0037-0.02225-0.0065-0.03834-0.01094-0.03216-0.0084-0.07527-0.01935-0.12053-0.02917-0.35421-0.07695-0.71495-0.22587-1.0062-0.41453-0.05208-0.03375-0.09529-0.05862-0.12783-0.07489-0.01627-0.0084-0.02936-0.01496-0.0402-0.01823-0.0056-0.0019-0.01019-0.0019-0.01459-0.0019-0.0019-1.68e-4 -0.0056-3.18e-4 -0.0075 0h-0.0019c-5.43e-4 1.87e-4 -0.0028 0.0019-0.0037 0.0019-0.0028 0.0019-0.0056 0.0047-0.01094 0.0094-0.0056 0.0047-0.01459 0.0093-0.02375 0.01645-0.01833 0.0144-0.0431 0.03441-0.07302 0.05844-0.05993 0.04796-0.13982 0.11167-0.22461 0.18079-0.16955 0.13822-0.3457 0.28242-0.39262 0.31958l-0.08031 0.06395-0.2374-0.2374-0.23739-0.23922 0.06208-0.07854c0.03656-0.04694 0.1857-0.23065 0.33053-0.40723 0.07246-0.08835 0.13847-0.16963 0.18627-0.23009 0.02384-0.0302 0.0432-0.05526 0.05657-0.07302 0.0065-0.0094 0.01094-0.01664 0.01458-0.02188 0.0019-0.0028 0.0047-0.0056 0.0056-0.0075l0.0019-0.0019v-0.0019c5.6e-5 -1.68e-4 0-0.0037 0-0.0037v-0.0038c-5.05e-4 -9.35e-4 -9.35e-4 -0.0037-0.0019-0.0056-0.0019-0.0028-0.0047-0.0075-0.0075-0.01281-0.0056-0.0099-0.01234-0.02244-0.02188-0.03833-0.01917-0.03179-0.04591-0.07396-0.07489-0.1187-0.18726-0.28907-0.33598-0.64929-0.41271-1.0026-0.0097-0.04525-0.02057-0.08854-0.02917-0.12053-0.0047-0.01599-0.0075-0.03029-0.01094-0.0402-0.0019-0.0047-0.0037-0.0075-0.0056-0.01094-7.01e-4 -0.0019-9.35e-4 -0.0037-0.0019-0.0056l-0.0056-0.0056h-0.0019c-9.35e-4 -3.93e-4 -0.0028-0.0019-0.0037-0.0019-0.0019-6.17e-4 -0.0037-9.35e-4 -0.0075-0.0019-0.0075-9.35e-4 -0.01702-0.0019-0.02917-0.0037-0.0244-0.0037-0.05862-0.0094-0.10044-0.01459-0.08368-0.01029-0.19786-0.02225-0.3214-0.03469-0.12347-0.01243-0.24291-0.02468-0.33601-0.03469-0.09312-0.01-0.16024-0.01739-0.17713-0.0201l-0.05666-0.0093v-0.67019l0.06573-0.0093c0.04058-0.0056 0.27176-0.02861 0.49671-0.05114 0.11247-0.01122 0.22411-0.02291 0.30861-0.03104 0.04226-0.0037 0.07807-0.0065 0.10409-0.0093 0.013-9.35e-4 0.02328-0.0028 0.03104-0.0037 0.0075-6.17e-4 0.01374 0 0.01459 0 3.36e-4 0 0.0037-0.0019 0.0037-0.0019 3.55e-4 -1.31e-4 0.0028-0.0019 0.0037-0.0019l0.0037-0.0037c0.0028-0.0028 0.0037-0.0047 0.0056-0.0093 0.0037-0.0084 0.0084-0.02076 0.01281-0.03469 0.0093-0.02786 0.01907-0.06582 0.02739-0.10774 0.06788-0.34434 0.23613-0.75814 0.42549-1.0482 0.02422-0.03703 0.04638-0.07209 0.06395-0.10044 0.0084-0.01421 0.01645-0.02712 0.02188-0.03656 0.0056-0.0094 0.0094-0.01515 0.01094-0.0201v-0.0019c9e-6 -2.43e-4 4.6e-5 -0.0037 0-0.0037-9.4e-5 -6.36e-4 4.39e-4 -0.0028 0-0.0037-8.79e-4 -0.0028-0.0019-0.0047-0.0037-0.0075-0.0028-0.0065-0.0084-0.01412-0.01459-0.02375-0.01262-0.01917-0.03151-0.04544-0.05479-0.07667-0.04666-0.06255-0.11161-0.14652-0.18444-0.23558-0.14552-0.1779-0.2952-0.3624-0.33236-0.40905l-0.06395-0.07854 0.47662-0.47662 0.03656 0.02917c0.02263 0.0172 0.20685 0.16669 0.40723 0.33054 0.10022 0.082 0.1932 0.15597 0.26113 0.21 0.03394 0.02702 0.06059 0.04871 0.08031 0.06395 0.0099 0.0075 0.01805 0.01421 0.02375 0.01823 0.0028 0.0019 0.0056 0.0047 0.0075 0.0056h0.0019l0.0019 0.0019h0.0095c9.35e-4 -5.24e-4 0.0019-0.0028 0.0037-0.0037 0.0037-0.0019 0.0075-0.0028 0.01281-0.0056 0.01066-0.0056 0.02627-0.01515 0.04385-0.02562 0.03506-0.02085 0.08116-0.04871 0.13148-0.08032 0.30819-0.19346 0.63616-0.32824 0.98425-0.40358 0.046-0.0099 0.08789-0.02048 0.12053-0.02917 0.01636-0.0047 0.03001-0.0075 0.04021-0.01094 0.0047-0.0019 0.0094-0.0037 0.01281-0.0056 0.0019-7.02e-4 0.0037-9.35e-4 0.0056-0.0019h0.0019l0.0019-0.0019c1.02e-4 -1.03e-4 0.0019-0.0037 0.0019-0.0037v-0.0019l0.0019-0.0019c6.64e-4 -0.0019 9.35e-4 -0.0056 0.0019-0.0094 0.0019-0.0065 0.0037-0.0172 0.0056-0.02917 0.0037-0.02394 0.0075-0.05759 0.01281-0.09861 0.0101-0.08209 0.02272-0.19293 0.03469-0.31409 0.02403-0.24217 0.0475-0.474 0.05292-0.51315zm-0.29218 2.1585c-0.32576 0.10914-0.57874 0.27098-0.82176 0.5241-0.29701 0.30938-0.47325 0.66613-0.53688 1.0884-0.03235 0.21143-0.03282 0.36797 0 0.58802 0.06844 0.4575 0.26493 0.83355 0.60262 1.1578 0.3027 0.29058 0.65754 0.46837 1.072 0.53688 0.18249 0.0302 0.56445 0.02076 0.72863-0.01823 0.40759-0.0968 0.71983-0.2677 1.0007-0.54783 0.69262-0.69075 0.78945-1.7657 0.23009-2.5748-0.1033-0.14943-0.3607-0.40377-0.51132-0.50584-0.51836-0.35154-1.1786-0.44446-1.764-0.24835zm0.0056 0.01646c0.58012-0.19435 1.2356-0.10199 1.7494 0.24653 0.14708 0.09967 0.40498 0.35444 0.50584 0.50036 0.55477 0.80252 0.46039 1.8679-0.22644 2.553-0.27884 0.2781-0.58834 0.448-0.99342 0.5442-0.15882 0.03777-0.54513 0.04591-0.72315 0.01645h-0.0019c-0.41046-0.06815-0.76099-0.24343-1.061-0.5314-0.33529-0.3219-0.52742-0.69451-0.59532-1.1486-0.03263-0.2189-0.03394-0.37056-0.0019-0.58071 0.06311-0.41903 0.23846-0.77402 0.53323-1.081 0.24141-0.25145 0.491-0.41025 0.81446-0.51862zm0.35792 0.30862c-0.51541 0.08976-0.95078 0.41947-1.176 0.88932-0.10846 0.22609-0.14265 0.35921-0.1534 0.61175-0.01103 0.27344 0.01309 0.43939 0.09497 0.64646 0.09359 0.23593 0.18872 0.38032 0.36158 0.55514 0.23478 0.23748 0.4936 0.38407 0.79802 0.44923 0.16379 0.03506 0.48436 0.03366 0.65558 0v0.0037l0.0093-0.0037c0.50487-0.10409 0.9477-0.46581 1.1505-0.94227 0.08424-0.19815 0.12038-0.38421 0.12052-0.61541 2.8e-4 -0.46335-0.14992-0.8254-0.47662-1.1486-0.20992-0.2077-0.40143-0.321-0.70306-0.41271-0.14432-0.04385-0.51694-0.06143-0.68115-0.03282zm0.0037 0.01823c0.15852-0.02758 0.53455-0.0093 0.67202 0.03282 0.29984 0.09116 0.48735 0.20103 0.69576 0.40723 0.324 0.32056 0.47324 0.67623 0.47297 1.1358-1.41e-4 0.2294-0.03525 0.41186-0.1187 0.6081-0.20045 0.47105-0.64047 0.83026-1.1396 0.93316-0.16478 0.03422-0.49595 0.03459-0.6574 0-0.30124-0.06451-0.55792-0.20828-0.79072-0.44375-0.1717-0.17365-0.26307-0.31698-0.35609-0.55149-0.08116-0.20521-0.10415-0.36698-0.09312-0.63915 0.01066-0.25131 0.04179-0.37948 0.14974-0.60445 0.22289-0.46486 0.65508-0.78955 1.1651-0.87837z" color="#000000" fill="#8da1bd" stroke-width=".93498" style="-inkscape-stroke:none"/>
</svg>
